<mxfile host="app.diagrams.net" modified="2021-10-23T23:51:33.845Z" agent="5.0 (Windows NT 10.0; Win64; x64) AppleWebKit/537.36 (KHTML, like Gecko) Chrome/94.0.4606.81 Safari/537.36" etag="p0x3_MBR47DoyGqh1w3r" version="15.5.8" type="github">
  <diagram name="Page-1" id="03018318-947c-dd8e-b7a3-06fadd420f32">
    <mxGraphModel dx="2202" dy="582" grid="1" gridSize="10" guides="1" tooltips="1" connect="1" arrows="1" fold="1" page="1" pageScale="1" pageWidth="1100" pageHeight="850" background="none" math="0" shadow="0">
      <root>
        <mxCell id="0" />
        <mxCell id="1" parent="0" />
        <mxCell id="jKOx8MgDiJnZx1pA27ru-1" value="" style="strokeWidth=1;shadow=0;dashed=0;align=center;html=1;shape=mxgraph.mockup.containers.browserWindow;rSize=0;strokeColor=none;strokeColor2=#008cff;strokeColor3=#c4c4c4;mainText=,;recursiveResize=0;fontSize=25;fillColor=none;" parent="1" vertex="1">
          <mxGeometry width="1120" height="862" as="geometry" />
        </mxCell>
        <mxCell id="jKOx8MgDiJnZx1pA27ru-2" value="" style="line;strokeWidth=2;html=1;fontSize=25;" parent="jKOx8MgDiJnZx1pA27ru-1" vertex="1">
          <mxGeometry y="760" width="1100" height="10" as="geometry" />
        </mxCell>
        <mxCell id="jKOx8MgDiJnZx1pA27ru-3" value="Page 1" style="strokeWidth=1;shadow=0;dashed=0;align=center;html=1;shape=mxgraph.mockup.containers.anchor;fontSize=17;fontColor=#666666;align=left;" parent="jKOx8MgDiJnZx1pA27ru-1" vertex="1">
          <mxGeometry x="60" y="12" width="110" height="26" as="geometry" />
        </mxCell>
        <mxCell id="jKOx8MgDiJnZx1pA27ru-4" value="https://tupc.edu.ph/admission/applicant-register.html" style="strokeWidth=1;shadow=0;dashed=0;align=center;html=1;shape=mxgraph.mockup.containers.anchor;rSize=0;fontSize=17;fontColor=#666666;align=left;" parent="jKOx8MgDiJnZx1pA27ru-1" vertex="1">
          <mxGeometry x="130" y="60" width="250" height="26" as="geometry" />
        </mxCell>
        <mxCell id="jKOx8MgDiJnZx1pA27ru-5" value="&lt;h1&gt;&lt;b&gt;&lt;font style=&quot;font-size: 25px&quot;&gt;TECHNOLOGICAL UNIVERSITY OF THE PHILIPPINES - CAVITE&lt;/font&gt;&lt;/b&gt;&lt;/h1&gt;" style="text;html=1;points=[];align=left;verticalAlign=top;spacingTop=-4;fontSize=14;fontFamily=Verdana" parent="jKOx8MgDiJnZx1pA27ru-1" vertex="1">
          <mxGeometry x="160" y="130" width="540" height="60" as="geometry" />
        </mxCell>
        <mxCell id="jKOx8MgDiJnZx1pA27ru-6" value="LOGO" style="ellipse;shape=doubleEllipse;whiteSpace=wrap;html=1;fontSize=25;" parent="jKOx8MgDiJnZx1pA27ru-1" vertex="1">
          <mxGeometry x="50" y="120" width="100" height="100" as="geometry" />
        </mxCell>
        <mxCell id="jKOx8MgDiJnZx1pA27ru-8" value="" style="line;strokeWidth=2;html=1;fontSize=25;" parent="jKOx8MgDiJnZx1pA27ru-1" vertex="1">
          <mxGeometry y="230" width="1100" height="10" as="geometry" />
        </mxCell>
        <mxCell id="jKOx8MgDiJnZx1pA27ru-9" value="" style="verticalLabelPosition=bottom;shadow=0;dashed=0;align=center;html=1;verticalAlign=top;strokeWidth=1;shape=mxgraph.mockup.navigation.scrollBar;strokeColor=#999999;barPos=20;fillColor2=#99ddff;strokeColor2=none;direction=north;fontSize=25;" parent="jKOx8MgDiJnZx1pA27ru-1" vertex="1">
          <mxGeometry x="1100" y="110" width="30" height="740" as="geometry" />
        </mxCell>
        <mxCell id="jKOx8MgDiJnZx1pA27ru-27" value="&lt;span style=&quot;font-family: &amp;#34;euphemia&amp;#34; ; font-size: 10.72px ; font-weight: 700&quot;&gt;(icon-tel) (046) 416-4920 (icon-email) cavite@tup.edu.ph (icon-web) www.tup.edu.ph&lt;br&gt;&lt;/span&gt;&lt;span style=&quot;font-family: &amp;#34;euphemia&amp;#34; ; font-size: 10.72px ; font-weight: 700&quot;&gt;(icon-add) Carlos Q. Trinidad Avenue, Salawag, DasmariÃ±as City, Cavite, Philippines&lt;/span&gt;&lt;span style=&quot;font-family: &amp;#34;euphemia&amp;#34; ; font-size: 10.72px ; font-weight: 700&quot;&gt;&lt;br&gt;&lt;/span&gt;" style="rounded=0;whiteSpace=wrap;html=1;fontSize=20;strokeWidth=1;fillColor=none;align=left;verticalAlign=top;strokeColor=none;" parent="jKOx8MgDiJnZx1pA27ru-1" vertex="1">
          <mxGeometry x="310" y="780" width="480" height="60" as="geometry" />
        </mxCell>
        <mxCell id="7ib71Nidem4NqmsdStW_-4" value="" style="rounded=0;whiteSpace=wrap;html=1;" parent="jKOx8MgDiJnZx1pA27ru-1" vertex="1">
          <mxGeometry x="50" y="260" width="25" height="20" as="geometry" />
        </mxCell>
        <mxCell id="7ib71Nidem4NqmsdStW_-6" value="" style="shape=table;html=1;whiteSpace=wrap;startSize=0;container=1;collapsible=0;childLayout=tableLayout;" parent="jKOx8MgDiJnZx1pA27ru-1" vertex="1">
          <mxGeometry x="50" y="300" width="1010" height="378" as="geometry" />
        </mxCell>
        <mxCell id="7ib71Nidem4NqmsdStW_-7" value="" style="shape=partialRectangle;html=1;whiteSpace=wrap;collapsible=0;dropTarget=0;pointerEvents=0;fillColor=none;top=0;left=0;bottom=0;right=0;points=[[0,0.5],[1,0.5]];portConstraint=eastwest;" parent="7ib71Nidem4NqmsdStW_-6" vertex="1">
          <mxGeometry width="1010" height="42" as="geometry" />
        </mxCell>
        <mxCell id="7ib71Nidem4NqmsdStW_-84" style="shape=partialRectangle;html=1;whiteSpace=wrap;connectable=0;fillColor=none;top=0;left=0;bottom=0;right=0;overflow=hidden;pointerEvents=1;" parent="7ib71Nidem4NqmsdStW_-7" vertex="1">
          <mxGeometry width="36" height="42" as="geometry">
            <mxRectangle width="36" height="42" as="alternateBounds" />
          </mxGeometry>
        </mxCell>
        <mxCell id="7ib71Nidem4NqmsdStW_-8" value="&lt;b&gt;NAME&lt;/b&gt;" style="shape=partialRectangle;html=1;whiteSpace=wrap;connectable=0;fillColor=none;top=0;left=0;bottom=0;right=0;overflow=hidden;pointerEvents=1;" parent="7ib71Nidem4NqmsdStW_-7" vertex="1">
          <mxGeometry x="36" width="144" height="42" as="geometry">
            <mxRectangle width="144" height="42" as="alternateBounds" />
          </mxGeometry>
        </mxCell>
        <mxCell id="7ib71Nidem4NqmsdStW_-9" value="&lt;b&gt;ID&lt;/b&gt;" style="shape=partialRectangle;html=1;whiteSpace=wrap;connectable=0;fillColor=none;top=0;left=0;bottom=0;right=0;overflow=hidden;pointerEvents=1;" parent="7ib71Nidem4NqmsdStW_-7" vertex="1">
          <mxGeometry x="180" width="124" height="42" as="geometry">
            <mxRectangle width="124" height="42" as="alternateBounds" />
          </mxGeometry>
        </mxCell>
        <mxCell id="7ib71Nidem4NqmsdStW_-10" value="&lt;b&gt;EMAIL&lt;/b&gt;" style="shape=partialRectangle;html=1;whiteSpace=wrap;connectable=0;fillColor=none;top=0;left=0;bottom=0;right=0;overflow=hidden;pointerEvents=1;" parent="7ib71Nidem4NqmsdStW_-7" vertex="1">
          <mxGeometry x="304" width="134" height="42" as="geometry">
            <mxRectangle width="134" height="42" as="alternateBounds" />
          </mxGeometry>
        </mxCell>
        <mxCell id="7ib71Nidem4NqmsdStW_-19" value="&lt;b&gt;CONTACT NUMBER&lt;/b&gt;" style="shape=partialRectangle;html=1;whiteSpace=wrap;connectable=0;fillColor=none;top=0;left=0;bottom=0;right=0;overflow=hidden;pointerEvents=1;" parent="7ib71Nidem4NqmsdStW_-7" vertex="1">
          <mxGeometry x="438" width="142" height="42" as="geometry">
            <mxRectangle width="142" height="42" as="alternateBounds" />
          </mxGeometry>
        </mxCell>
        <mxCell id="7ib71Nidem4NqmsdStW_-22" value="&lt;b&gt;COURSE APPLIED&lt;/b&gt;" style="shape=partialRectangle;html=1;whiteSpace=wrap;connectable=0;fillColor=none;top=0;left=0;bottom=0;right=0;overflow=hidden;pointerEvents=1;" parent="7ib71Nidem4NqmsdStW_-7" vertex="1">
          <mxGeometry x="580" width="143" height="42" as="geometry">
            <mxRectangle width="143" height="42" as="alternateBounds" />
          </mxGeometry>
        </mxCell>
        <mxCell id="7ib71Nidem4NqmsdStW_-25" value="&lt;b&gt;DATE OF INTERVIEW&lt;/b&gt;" style="shape=partialRectangle;html=1;whiteSpace=wrap;connectable=0;fillColor=none;top=0;left=0;bottom=0;right=0;overflow=hidden;pointerEvents=1;" parent="7ib71Nidem4NqmsdStW_-7" vertex="1">
          <mxGeometry x="723" width="143" height="42" as="geometry">
            <mxRectangle width="143" height="42" as="alternateBounds" />
          </mxGeometry>
        </mxCell>
        <mxCell id="7ib71Nidem4NqmsdStW_-28" value="&lt;b&gt;RESULT&lt;/b&gt;" style="shape=partialRectangle;html=1;whiteSpace=wrap;connectable=0;fillColor=none;top=0;left=0;bottom=0;right=0;overflow=hidden;pointerEvents=1;" parent="7ib71Nidem4NqmsdStW_-7" vertex="1">
          <mxGeometry x="866" width="144" height="42" as="geometry">
            <mxRectangle width="144" height="42" as="alternateBounds" />
          </mxGeometry>
        </mxCell>
        <mxCell id="7ib71Nidem4NqmsdStW_-11" value="" style="shape=partialRectangle;html=1;whiteSpace=wrap;collapsible=0;dropTarget=0;pointerEvents=0;fillColor=none;top=0;left=0;bottom=0;right=0;points=[[0,0.5],[1,0.5]];portConstraint=eastwest;" parent="7ib71Nidem4NqmsdStW_-6" vertex="1">
          <mxGeometry y="42" width="1010" height="42" as="geometry" />
        </mxCell>
        <mxCell id="7ib71Nidem4NqmsdStW_-85" style="shape=partialRectangle;html=1;whiteSpace=wrap;connectable=0;fillColor=none;top=0;left=0;bottom=0;right=0;overflow=hidden;pointerEvents=1;align=left;" parent="7ib71Nidem4NqmsdStW_-11" vertex="1">
          <mxGeometry width="36" height="42" as="geometry">
            <mxRectangle width="36" height="42" as="alternateBounds" />
          </mxGeometry>
        </mxCell>
        <mxCell id="7ib71Nidem4NqmsdStW_-12" value="&amp;nbsp;PAOLO FRENCILLO" style="shape=partialRectangle;html=1;whiteSpace=wrap;connectable=0;fillColor=none;top=0;left=0;bottom=0;right=0;overflow=hidden;pointerEvents=1;align=left;" parent="7ib71Nidem4NqmsdStW_-11" vertex="1">
          <mxGeometry x="36" width="144" height="42" as="geometry">
            <mxRectangle width="144" height="42" as="alternateBounds" />
          </mxGeometry>
        </mxCell>
        <mxCell id="7ib71Nidem4NqmsdStW_-13" value="1" style="shape=partialRectangle;html=1;whiteSpace=wrap;connectable=0;fillColor=none;top=0;left=0;bottom=0;right=0;overflow=hidden;pointerEvents=1;" parent="7ib71Nidem4NqmsdStW_-11" vertex="1">
          <mxGeometry x="180" width="124" height="42" as="geometry">
            <mxRectangle width="124" height="42" as="alternateBounds" />
          </mxGeometry>
        </mxCell>
        <mxCell id="7ib71Nidem4NqmsdStW_-14" value="asd@gmail.com" style="shape=partialRectangle;html=1;whiteSpace=wrap;connectable=0;fillColor=none;top=0;left=0;bottom=0;right=0;overflow=hidden;pointerEvents=1;" parent="7ib71Nidem4NqmsdStW_-11" vertex="1">
          <mxGeometry x="304" width="134" height="42" as="geometry">
            <mxRectangle width="134" height="42" as="alternateBounds" />
          </mxGeometry>
        </mxCell>
        <mxCell id="7ib71Nidem4NqmsdStW_-20" value="09XXXXXXX" style="shape=partialRectangle;html=1;whiteSpace=wrap;connectable=0;fillColor=none;top=0;left=0;bottom=0;right=0;overflow=hidden;pointerEvents=1;" parent="7ib71Nidem4NqmsdStW_-11" vertex="1">
          <mxGeometry x="438" width="142" height="42" as="geometry">
            <mxRectangle width="142" height="42" as="alternateBounds" />
          </mxGeometry>
        </mxCell>
        <mxCell id="7ib71Nidem4NqmsdStW_-23" value="BET-COET" style="shape=partialRectangle;html=1;whiteSpace=wrap;connectable=0;fillColor=none;top=0;left=0;bottom=0;right=0;overflow=hidden;pointerEvents=1;" parent="7ib71Nidem4NqmsdStW_-11" vertex="1">
          <mxGeometry x="580" width="143" height="42" as="geometry">
            <mxRectangle width="143" height="42" as="alternateBounds" />
          </mxGeometry>
        </mxCell>
        <mxCell id="7ib71Nidem4NqmsdStW_-26" value="XX-XX-XX" style="shape=partialRectangle;html=1;whiteSpace=wrap;connectable=0;fillColor=none;top=0;left=0;bottom=0;right=0;overflow=hidden;pointerEvents=1;" parent="7ib71Nidem4NqmsdStW_-11" vertex="1">
          <mxGeometry x="723" width="143" height="42" as="geometry">
            <mxRectangle width="143" height="42" as="alternateBounds" />
          </mxGeometry>
        </mxCell>
        <mxCell id="7ib71Nidem4NqmsdStW_-29" value="PASSED" style="shape=partialRectangle;html=1;whiteSpace=wrap;connectable=0;fillColor=none;top=0;left=0;bottom=0;right=0;overflow=hidden;pointerEvents=1;" parent="7ib71Nidem4NqmsdStW_-11" vertex="1">
          <mxGeometry x="866" width="144" height="42" as="geometry">
            <mxRectangle width="144" height="42" as="alternateBounds" />
          </mxGeometry>
        </mxCell>
        <mxCell id="7ib71Nidem4NqmsdStW_-15" value="" style="shape=partialRectangle;html=1;whiteSpace=wrap;collapsible=0;dropTarget=0;pointerEvents=0;fillColor=none;top=0;left=0;bottom=0;right=0;points=[[0,0.5],[1,0.5]];portConstraint=eastwest;" parent="7ib71Nidem4NqmsdStW_-6" vertex="1">
          <mxGeometry y="84" width="1010" height="42" as="geometry" />
        </mxCell>
        <mxCell id="7ib71Nidem4NqmsdStW_-86" style="shape=partialRectangle;html=1;whiteSpace=wrap;connectable=0;fillColor=none;top=0;left=0;bottom=0;right=0;overflow=hidden;pointerEvents=1;align=left;" parent="7ib71Nidem4NqmsdStW_-15" vertex="1">
          <mxGeometry width="36" height="42" as="geometry">
            <mxRectangle width="36" height="42" as="alternateBounds" />
          </mxGeometry>
        </mxCell>
        <mxCell id="7ib71Nidem4NqmsdStW_-16" value="&amp;nbsp;CEFRIN PAANOD" style="shape=partialRectangle;html=1;whiteSpace=wrap;connectable=0;fillColor=none;top=0;left=0;bottom=0;right=0;overflow=hidden;pointerEvents=1;align=left;" parent="7ib71Nidem4NqmsdStW_-15" vertex="1">
          <mxGeometry x="36" width="144" height="42" as="geometry">
            <mxRectangle width="144" height="42" as="alternateBounds" />
          </mxGeometry>
        </mxCell>
        <mxCell id="7ib71Nidem4NqmsdStW_-17" value="2" style="shape=partialRectangle;html=1;whiteSpace=wrap;connectable=0;fillColor=none;top=0;left=0;bottom=0;right=0;overflow=hidden;pointerEvents=1;" parent="7ib71Nidem4NqmsdStW_-15" vertex="1">
          <mxGeometry x="180" width="124" height="42" as="geometry">
            <mxRectangle width="124" height="42" as="alternateBounds" />
          </mxGeometry>
        </mxCell>
        <mxCell id="7ib71Nidem4NqmsdStW_-18" value="qweerty@gmail.com" style="shape=partialRectangle;html=1;whiteSpace=wrap;connectable=0;fillColor=none;top=0;left=0;bottom=0;right=0;overflow=hidden;pointerEvents=1;" parent="7ib71Nidem4NqmsdStW_-15" vertex="1">
          <mxGeometry x="304" width="134" height="42" as="geometry">
            <mxRectangle width="134" height="42" as="alternateBounds" />
          </mxGeometry>
        </mxCell>
        <mxCell id="7ib71Nidem4NqmsdStW_-21" value="09XXXXXXX" style="shape=partialRectangle;html=1;whiteSpace=wrap;connectable=0;fillColor=none;top=0;left=0;bottom=0;right=0;overflow=hidden;pointerEvents=1;" parent="7ib71Nidem4NqmsdStW_-15" vertex="1">
          <mxGeometry x="438" width="142" height="42" as="geometry">
            <mxRectangle width="142" height="42" as="alternateBounds" />
          </mxGeometry>
        </mxCell>
        <mxCell id="7ib71Nidem4NqmsdStW_-24" value="BET-ESET" style="shape=partialRectangle;html=1;whiteSpace=wrap;connectable=0;fillColor=none;top=0;left=0;bottom=0;right=0;overflow=hidden;pointerEvents=1;" parent="7ib71Nidem4NqmsdStW_-15" vertex="1">
          <mxGeometry x="580" width="143" height="42" as="geometry">
            <mxRectangle width="143" height="42" as="alternateBounds" />
          </mxGeometry>
        </mxCell>
        <mxCell id="7ib71Nidem4NqmsdStW_-27" value="XX-XX-XX" style="shape=partialRectangle;html=1;whiteSpace=wrap;connectable=0;fillColor=none;top=0;left=0;bottom=0;right=0;overflow=hidden;pointerEvents=1;" parent="7ib71Nidem4NqmsdStW_-15" vertex="1">
          <mxGeometry x="723" width="143" height="42" as="geometry">
            <mxRectangle width="143" height="42" as="alternateBounds" />
          </mxGeometry>
        </mxCell>
        <mxCell id="7ib71Nidem4NqmsdStW_-30" value="FAILED" style="shape=partialRectangle;html=1;whiteSpace=wrap;connectable=0;fillColor=none;top=0;left=0;bottom=0;right=0;overflow=hidden;pointerEvents=1;" parent="7ib71Nidem4NqmsdStW_-15" vertex="1">
          <mxGeometry x="866" width="144" height="42" as="geometry">
            <mxRectangle width="144" height="42" as="alternateBounds" />
          </mxGeometry>
        </mxCell>
        <mxCell id="7ib71Nidem4NqmsdStW_-31" style="shape=partialRectangle;html=1;whiteSpace=wrap;collapsible=0;dropTarget=0;pointerEvents=0;fillColor=none;top=0;left=0;bottom=0;right=0;points=[[0,0.5],[1,0.5]];portConstraint=eastwest;" parent="7ib71Nidem4NqmsdStW_-6" vertex="1">
          <mxGeometry y="126" width="1010" height="42" as="geometry" />
        </mxCell>
        <mxCell id="7ib71Nidem4NqmsdStW_-87" style="shape=partialRectangle;html=1;whiteSpace=wrap;connectable=0;fillColor=none;top=0;left=0;bottom=0;right=0;overflow=hidden;pointerEvents=1;align=left;" parent="7ib71Nidem4NqmsdStW_-31" vertex="1">
          <mxGeometry width="36" height="42" as="geometry">
            <mxRectangle width="36" height="42" as="alternateBounds" />
          </mxGeometry>
        </mxCell>
        <mxCell id="7ib71Nidem4NqmsdStW_-32" value="&amp;nbsp;VINCENT JAKE MONTARIL" style="shape=partialRectangle;html=1;whiteSpace=wrap;connectable=0;fillColor=none;top=0;left=0;bottom=0;right=0;overflow=hidden;pointerEvents=1;align=left;" parent="7ib71Nidem4NqmsdStW_-31" vertex="1">
          <mxGeometry x="36" width="144" height="42" as="geometry">
            <mxRectangle width="144" height="42" as="alternateBounds" />
          </mxGeometry>
        </mxCell>
        <mxCell id="7ib71Nidem4NqmsdStW_-33" value="3" style="shape=partialRectangle;html=1;whiteSpace=wrap;connectable=0;fillColor=none;top=0;left=0;bottom=0;right=0;overflow=hidden;pointerEvents=1;" parent="7ib71Nidem4NqmsdStW_-31" vertex="1">
          <mxGeometry x="180" width="124" height="42" as="geometry">
            <mxRectangle width="124" height="42" as="alternateBounds" />
          </mxGeometry>
        </mxCell>
        <mxCell id="7ib71Nidem4NqmsdStW_-34" value="abc@yahoo.com" style="shape=partialRectangle;html=1;whiteSpace=wrap;connectable=0;fillColor=none;top=0;left=0;bottom=0;right=0;overflow=hidden;pointerEvents=1;" parent="7ib71Nidem4NqmsdStW_-31" vertex="1">
          <mxGeometry x="304" width="134" height="42" as="geometry">
            <mxRectangle width="134" height="42" as="alternateBounds" />
          </mxGeometry>
        </mxCell>
        <mxCell id="7ib71Nidem4NqmsdStW_-35" value="09XXXXXXX" style="shape=partialRectangle;html=1;whiteSpace=wrap;connectable=0;fillColor=none;top=0;left=0;bottom=0;right=0;overflow=hidden;pointerEvents=1;" parent="7ib71Nidem4NqmsdStW_-31" vertex="1">
          <mxGeometry x="438" width="142" height="42" as="geometry">
            <mxRectangle width="142" height="42" as="alternateBounds" />
          </mxGeometry>
        </mxCell>
        <mxCell id="7ib71Nidem4NqmsdStW_-36" value="BET-COET" style="shape=partialRectangle;html=1;whiteSpace=wrap;connectable=0;fillColor=none;top=0;left=0;bottom=0;right=0;overflow=hidden;pointerEvents=1;" parent="7ib71Nidem4NqmsdStW_-31" vertex="1">
          <mxGeometry x="580" width="143" height="42" as="geometry">
            <mxRectangle width="143" height="42" as="alternateBounds" />
          </mxGeometry>
        </mxCell>
        <mxCell id="7ib71Nidem4NqmsdStW_-37" value="&lt;span&gt;XX-XX-XX&lt;/span&gt;" style="shape=partialRectangle;html=1;whiteSpace=wrap;connectable=0;fillColor=none;top=0;left=0;bottom=0;right=0;overflow=hidden;pointerEvents=1;" parent="7ib71Nidem4NqmsdStW_-31" vertex="1">
          <mxGeometry x="723" width="143" height="42" as="geometry">
            <mxRectangle width="143" height="42" as="alternateBounds" />
          </mxGeometry>
        </mxCell>
        <mxCell id="7ib71Nidem4NqmsdStW_-38" value="NO RESULT" style="shape=partialRectangle;html=1;whiteSpace=wrap;connectable=0;fillColor=none;top=0;left=0;bottom=0;right=0;overflow=hidden;pointerEvents=1;" parent="7ib71Nidem4NqmsdStW_-31" vertex="1">
          <mxGeometry x="866" width="144" height="42" as="geometry">
            <mxRectangle width="144" height="42" as="alternateBounds" />
          </mxGeometry>
        </mxCell>
        <mxCell id="7ib71Nidem4NqmsdStW_-39" style="shape=partialRectangle;html=1;whiteSpace=wrap;collapsible=0;dropTarget=0;pointerEvents=0;fillColor=none;top=0;left=0;bottom=0;right=0;points=[[0,0.5],[1,0.5]];portConstraint=eastwest;" parent="7ib71Nidem4NqmsdStW_-6" vertex="1">
          <mxGeometry y="168" width="1010" height="42" as="geometry" />
        </mxCell>
        <mxCell id="7ib71Nidem4NqmsdStW_-88" style="shape=partialRectangle;html=1;whiteSpace=wrap;connectable=0;fillColor=none;top=0;left=0;bottom=0;right=0;overflow=hidden;pointerEvents=1;" parent="7ib71Nidem4NqmsdStW_-39" vertex="1">
          <mxGeometry width="36" height="42" as="geometry">
            <mxRectangle width="36" height="42" as="alternateBounds" />
          </mxGeometry>
        </mxCell>
        <mxCell id="7ib71Nidem4NqmsdStW_-40" style="shape=partialRectangle;html=1;whiteSpace=wrap;connectable=0;fillColor=none;top=0;left=0;bottom=0;right=0;overflow=hidden;pointerEvents=1;" parent="7ib71Nidem4NqmsdStW_-39" vertex="1">
          <mxGeometry x="36" width="144" height="42" as="geometry">
            <mxRectangle width="144" height="42" as="alternateBounds" />
          </mxGeometry>
        </mxCell>
        <mxCell id="7ib71Nidem4NqmsdStW_-41" style="shape=partialRectangle;html=1;whiteSpace=wrap;connectable=0;fillColor=none;top=0;left=0;bottom=0;right=0;overflow=hidden;pointerEvents=1;" parent="7ib71Nidem4NqmsdStW_-39" vertex="1">
          <mxGeometry x="180" width="124" height="42" as="geometry">
            <mxRectangle width="124" height="42" as="alternateBounds" />
          </mxGeometry>
        </mxCell>
        <mxCell id="7ib71Nidem4NqmsdStW_-42" style="shape=partialRectangle;html=1;whiteSpace=wrap;connectable=0;fillColor=none;top=0;left=0;bottom=0;right=0;overflow=hidden;pointerEvents=1;" parent="7ib71Nidem4NqmsdStW_-39" vertex="1">
          <mxGeometry x="304" width="134" height="42" as="geometry">
            <mxRectangle width="134" height="42" as="alternateBounds" />
          </mxGeometry>
        </mxCell>
        <mxCell id="7ib71Nidem4NqmsdStW_-43" style="shape=partialRectangle;html=1;whiteSpace=wrap;connectable=0;fillColor=none;top=0;left=0;bottom=0;right=0;overflow=hidden;pointerEvents=1;" parent="7ib71Nidem4NqmsdStW_-39" vertex="1">
          <mxGeometry x="438" width="142" height="42" as="geometry">
            <mxRectangle width="142" height="42" as="alternateBounds" />
          </mxGeometry>
        </mxCell>
        <mxCell id="7ib71Nidem4NqmsdStW_-44" style="shape=partialRectangle;html=1;whiteSpace=wrap;connectable=0;fillColor=none;top=0;left=0;bottom=0;right=0;overflow=hidden;pointerEvents=1;" parent="7ib71Nidem4NqmsdStW_-39" vertex="1">
          <mxGeometry x="580" width="143" height="42" as="geometry">
            <mxRectangle width="143" height="42" as="alternateBounds" />
          </mxGeometry>
        </mxCell>
        <mxCell id="7ib71Nidem4NqmsdStW_-45" style="shape=partialRectangle;html=1;whiteSpace=wrap;connectable=0;fillColor=none;top=0;left=0;bottom=0;right=0;overflow=hidden;pointerEvents=1;" parent="7ib71Nidem4NqmsdStW_-39" vertex="1">
          <mxGeometry x="723" width="143" height="42" as="geometry">
            <mxRectangle width="143" height="42" as="alternateBounds" />
          </mxGeometry>
        </mxCell>
        <mxCell id="7ib71Nidem4NqmsdStW_-46" style="shape=partialRectangle;html=1;whiteSpace=wrap;connectable=0;fillColor=none;top=0;left=0;bottom=0;right=0;overflow=hidden;pointerEvents=1;" parent="7ib71Nidem4NqmsdStW_-39" vertex="1">
          <mxGeometry x="866" width="144" height="42" as="geometry">
            <mxRectangle width="144" height="42" as="alternateBounds" />
          </mxGeometry>
        </mxCell>
        <mxCell id="7ib71Nidem4NqmsdStW_-47" style="shape=partialRectangle;html=1;whiteSpace=wrap;collapsible=0;dropTarget=0;pointerEvents=0;fillColor=none;top=0;left=0;bottom=0;right=0;points=[[0,0.5],[1,0.5]];portConstraint=eastwest;" parent="7ib71Nidem4NqmsdStW_-6" vertex="1">
          <mxGeometry y="210" width="1010" height="42" as="geometry" />
        </mxCell>
        <mxCell id="7ib71Nidem4NqmsdStW_-89" style="shape=partialRectangle;html=1;whiteSpace=wrap;connectable=0;fillColor=none;top=0;left=0;bottom=0;right=0;overflow=hidden;pointerEvents=1;" parent="7ib71Nidem4NqmsdStW_-47" vertex="1">
          <mxGeometry width="36" height="42" as="geometry">
            <mxRectangle width="36" height="42" as="alternateBounds" />
          </mxGeometry>
        </mxCell>
        <mxCell id="7ib71Nidem4NqmsdStW_-48" style="shape=partialRectangle;html=1;whiteSpace=wrap;connectable=0;fillColor=none;top=0;left=0;bottom=0;right=0;overflow=hidden;pointerEvents=1;" parent="7ib71Nidem4NqmsdStW_-47" vertex="1">
          <mxGeometry x="36" width="144" height="42" as="geometry">
            <mxRectangle width="144" height="42" as="alternateBounds" />
          </mxGeometry>
        </mxCell>
        <mxCell id="7ib71Nidem4NqmsdStW_-49" style="shape=partialRectangle;html=1;whiteSpace=wrap;connectable=0;fillColor=none;top=0;left=0;bottom=0;right=0;overflow=hidden;pointerEvents=1;" parent="7ib71Nidem4NqmsdStW_-47" vertex="1">
          <mxGeometry x="180" width="124" height="42" as="geometry">
            <mxRectangle width="124" height="42" as="alternateBounds" />
          </mxGeometry>
        </mxCell>
        <mxCell id="7ib71Nidem4NqmsdStW_-50" style="shape=partialRectangle;html=1;whiteSpace=wrap;connectable=0;fillColor=none;top=0;left=0;bottom=0;right=0;overflow=hidden;pointerEvents=1;" parent="7ib71Nidem4NqmsdStW_-47" vertex="1">
          <mxGeometry x="304" width="134" height="42" as="geometry">
            <mxRectangle width="134" height="42" as="alternateBounds" />
          </mxGeometry>
        </mxCell>
        <mxCell id="7ib71Nidem4NqmsdStW_-51" style="shape=partialRectangle;html=1;whiteSpace=wrap;connectable=0;fillColor=none;top=0;left=0;bottom=0;right=0;overflow=hidden;pointerEvents=1;" parent="7ib71Nidem4NqmsdStW_-47" vertex="1">
          <mxGeometry x="438" width="142" height="42" as="geometry">
            <mxRectangle width="142" height="42" as="alternateBounds" />
          </mxGeometry>
        </mxCell>
        <mxCell id="7ib71Nidem4NqmsdStW_-52" style="shape=partialRectangle;html=1;whiteSpace=wrap;connectable=0;fillColor=none;top=0;left=0;bottom=0;right=0;overflow=hidden;pointerEvents=1;" parent="7ib71Nidem4NqmsdStW_-47" vertex="1">
          <mxGeometry x="580" width="143" height="42" as="geometry">
            <mxRectangle width="143" height="42" as="alternateBounds" />
          </mxGeometry>
        </mxCell>
        <mxCell id="7ib71Nidem4NqmsdStW_-53" style="shape=partialRectangle;html=1;whiteSpace=wrap;connectable=0;fillColor=none;top=0;left=0;bottom=0;right=0;overflow=hidden;pointerEvents=1;" parent="7ib71Nidem4NqmsdStW_-47" vertex="1">
          <mxGeometry x="723" width="143" height="42" as="geometry">
            <mxRectangle width="143" height="42" as="alternateBounds" />
          </mxGeometry>
        </mxCell>
        <mxCell id="7ib71Nidem4NqmsdStW_-54" style="shape=partialRectangle;html=1;whiteSpace=wrap;connectable=0;fillColor=none;top=0;left=0;bottom=0;right=0;overflow=hidden;pointerEvents=1;" parent="7ib71Nidem4NqmsdStW_-47" vertex="1">
          <mxGeometry x="866" width="144" height="42" as="geometry">
            <mxRectangle width="144" height="42" as="alternateBounds" />
          </mxGeometry>
        </mxCell>
        <mxCell id="7ib71Nidem4NqmsdStW_-55" style="shape=partialRectangle;html=1;whiteSpace=wrap;collapsible=0;dropTarget=0;pointerEvents=0;fillColor=none;top=0;left=0;bottom=0;right=0;points=[[0,0.5],[1,0.5]];portConstraint=eastwest;" parent="7ib71Nidem4NqmsdStW_-6" vertex="1">
          <mxGeometry y="252" width="1010" height="42" as="geometry" />
        </mxCell>
        <mxCell id="7ib71Nidem4NqmsdStW_-90" style="shape=partialRectangle;html=1;whiteSpace=wrap;connectable=0;fillColor=none;top=0;left=0;bottom=0;right=0;overflow=hidden;pointerEvents=1;" parent="7ib71Nidem4NqmsdStW_-55" vertex="1">
          <mxGeometry width="36" height="42" as="geometry">
            <mxRectangle width="36" height="42" as="alternateBounds" />
          </mxGeometry>
        </mxCell>
        <mxCell id="7ib71Nidem4NqmsdStW_-56" style="shape=partialRectangle;html=1;whiteSpace=wrap;connectable=0;fillColor=none;top=0;left=0;bottom=0;right=0;overflow=hidden;pointerEvents=1;" parent="7ib71Nidem4NqmsdStW_-55" vertex="1">
          <mxGeometry x="36" width="144" height="42" as="geometry">
            <mxRectangle width="144" height="42" as="alternateBounds" />
          </mxGeometry>
        </mxCell>
        <mxCell id="7ib71Nidem4NqmsdStW_-57" style="shape=partialRectangle;html=1;whiteSpace=wrap;connectable=0;fillColor=none;top=0;left=0;bottom=0;right=0;overflow=hidden;pointerEvents=1;" parent="7ib71Nidem4NqmsdStW_-55" vertex="1">
          <mxGeometry x="180" width="124" height="42" as="geometry">
            <mxRectangle width="124" height="42" as="alternateBounds" />
          </mxGeometry>
        </mxCell>
        <mxCell id="7ib71Nidem4NqmsdStW_-58" style="shape=partialRectangle;html=1;whiteSpace=wrap;connectable=0;fillColor=none;top=0;left=0;bottom=0;right=0;overflow=hidden;pointerEvents=1;" parent="7ib71Nidem4NqmsdStW_-55" vertex="1">
          <mxGeometry x="304" width="134" height="42" as="geometry">
            <mxRectangle width="134" height="42" as="alternateBounds" />
          </mxGeometry>
        </mxCell>
        <mxCell id="7ib71Nidem4NqmsdStW_-59" style="shape=partialRectangle;html=1;whiteSpace=wrap;connectable=0;fillColor=none;top=0;left=0;bottom=0;right=0;overflow=hidden;pointerEvents=1;" parent="7ib71Nidem4NqmsdStW_-55" vertex="1">
          <mxGeometry x="438" width="142" height="42" as="geometry">
            <mxRectangle width="142" height="42" as="alternateBounds" />
          </mxGeometry>
        </mxCell>
        <mxCell id="7ib71Nidem4NqmsdStW_-60" style="shape=partialRectangle;html=1;whiteSpace=wrap;connectable=0;fillColor=none;top=0;left=0;bottom=0;right=0;overflow=hidden;pointerEvents=1;" parent="7ib71Nidem4NqmsdStW_-55" vertex="1">
          <mxGeometry x="580" width="143" height="42" as="geometry">
            <mxRectangle width="143" height="42" as="alternateBounds" />
          </mxGeometry>
        </mxCell>
        <mxCell id="7ib71Nidem4NqmsdStW_-61" style="shape=partialRectangle;html=1;whiteSpace=wrap;connectable=0;fillColor=none;top=0;left=0;bottom=0;right=0;overflow=hidden;pointerEvents=1;" parent="7ib71Nidem4NqmsdStW_-55" vertex="1">
          <mxGeometry x="723" width="143" height="42" as="geometry">
            <mxRectangle width="143" height="42" as="alternateBounds" />
          </mxGeometry>
        </mxCell>
        <mxCell id="7ib71Nidem4NqmsdStW_-62" style="shape=partialRectangle;html=1;whiteSpace=wrap;connectable=0;fillColor=none;top=0;left=0;bottom=0;right=0;overflow=hidden;pointerEvents=1;" parent="7ib71Nidem4NqmsdStW_-55" vertex="1">
          <mxGeometry x="866" width="144" height="42" as="geometry">
            <mxRectangle width="144" height="42" as="alternateBounds" />
          </mxGeometry>
        </mxCell>
        <mxCell id="7ib71Nidem4NqmsdStW_-63" style="shape=partialRectangle;html=1;whiteSpace=wrap;collapsible=0;dropTarget=0;pointerEvents=0;fillColor=none;top=0;left=0;bottom=0;right=0;points=[[0,0.5],[1,0.5]];portConstraint=eastwest;" parent="7ib71Nidem4NqmsdStW_-6" vertex="1">
          <mxGeometry y="294" width="1010" height="42" as="geometry" />
        </mxCell>
        <mxCell id="7ib71Nidem4NqmsdStW_-91" style="shape=partialRectangle;html=1;whiteSpace=wrap;connectable=0;fillColor=none;top=0;left=0;bottom=0;right=0;overflow=hidden;pointerEvents=1;" parent="7ib71Nidem4NqmsdStW_-63" vertex="1">
          <mxGeometry width="36" height="42" as="geometry">
            <mxRectangle width="36" height="42" as="alternateBounds" />
          </mxGeometry>
        </mxCell>
        <mxCell id="7ib71Nidem4NqmsdStW_-64" style="shape=partialRectangle;html=1;whiteSpace=wrap;connectable=0;fillColor=none;top=0;left=0;bottom=0;right=0;overflow=hidden;pointerEvents=1;" parent="7ib71Nidem4NqmsdStW_-63" vertex="1">
          <mxGeometry x="36" width="144" height="42" as="geometry">
            <mxRectangle width="144" height="42" as="alternateBounds" />
          </mxGeometry>
        </mxCell>
        <mxCell id="7ib71Nidem4NqmsdStW_-65" style="shape=partialRectangle;html=1;whiteSpace=wrap;connectable=0;fillColor=none;top=0;left=0;bottom=0;right=0;overflow=hidden;pointerEvents=1;" parent="7ib71Nidem4NqmsdStW_-63" vertex="1">
          <mxGeometry x="180" width="124" height="42" as="geometry">
            <mxRectangle width="124" height="42" as="alternateBounds" />
          </mxGeometry>
        </mxCell>
        <mxCell id="7ib71Nidem4NqmsdStW_-66" style="shape=partialRectangle;html=1;whiteSpace=wrap;connectable=0;fillColor=none;top=0;left=0;bottom=0;right=0;overflow=hidden;pointerEvents=1;" parent="7ib71Nidem4NqmsdStW_-63" vertex="1">
          <mxGeometry x="304" width="134" height="42" as="geometry">
            <mxRectangle width="134" height="42" as="alternateBounds" />
          </mxGeometry>
        </mxCell>
        <mxCell id="7ib71Nidem4NqmsdStW_-67" style="shape=partialRectangle;html=1;whiteSpace=wrap;connectable=0;fillColor=none;top=0;left=0;bottom=0;right=0;overflow=hidden;pointerEvents=1;" parent="7ib71Nidem4NqmsdStW_-63" vertex="1">
          <mxGeometry x="438" width="142" height="42" as="geometry">
            <mxRectangle width="142" height="42" as="alternateBounds" />
          </mxGeometry>
        </mxCell>
        <mxCell id="7ib71Nidem4NqmsdStW_-68" style="shape=partialRectangle;html=1;whiteSpace=wrap;connectable=0;fillColor=none;top=0;left=0;bottom=0;right=0;overflow=hidden;pointerEvents=1;" parent="7ib71Nidem4NqmsdStW_-63" vertex="1">
          <mxGeometry x="580" width="143" height="42" as="geometry">
            <mxRectangle width="143" height="42" as="alternateBounds" />
          </mxGeometry>
        </mxCell>
        <mxCell id="7ib71Nidem4NqmsdStW_-69" style="shape=partialRectangle;html=1;whiteSpace=wrap;connectable=0;fillColor=none;top=0;left=0;bottom=0;right=0;overflow=hidden;pointerEvents=1;" parent="7ib71Nidem4NqmsdStW_-63" vertex="1">
          <mxGeometry x="723" width="143" height="42" as="geometry">
            <mxRectangle width="143" height="42" as="alternateBounds" />
          </mxGeometry>
        </mxCell>
        <mxCell id="7ib71Nidem4NqmsdStW_-70" style="shape=partialRectangle;html=1;whiteSpace=wrap;connectable=0;fillColor=none;top=0;left=0;bottom=0;right=0;overflow=hidden;pointerEvents=1;" parent="7ib71Nidem4NqmsdStW_-63" vertex="1">
          <mxGeometry x="866" width="144" height="42" as="geometry">
            <mxRectangle width="144" height="42" as="alternateBounds" />
          </mxGeometry>
        </mxCell>
        <mxCell id="7ib71Nidem4NqmsdStW_-71" style="shape=partialRectangle;html=1;whiteSpace=wrap;collapsible=0;dropTarget=0;pointerEvents=0;fillColor=none;top=0;left=0;bottom=0;right=0;points=[[0,0.5],[1,0.5]];portConstraint=eastwest;" parent="7ib71Nidem4NqmsdStW_-6" vertex="1">
          <mxGeometry y="336" width="1010" height="42" as="geometry" />
        </mxCell>
        <mxCell id="7ib71Nidem4NqmsdStW_-92" style="shape=partialRectangle;html=1;whiteSpace=wrap;connectable=0;fillColor=none;top=0;left=0;bottom=0;right=0;overflow=hidden;pointerEvents=1;" parent="7ib71Nidem4NqmsdStW_-71" vertex="1">
          <mxGeometry width="36" height="42" as="geometry">
            <mxRectangle width="36" height="42" as="alternateBounds" />
          </mxGeometry>
        </mxCell>
        <mxCell id="7ib71Nidem4NqmsdStW_-72" style="shape=partialRectangle;html=1;whiteSpace=wrap;connectable=0;fillColor=none;top=0;left=0;bottom=0;right=0;overflow=hidden;pointerEvents=1;" parent="7ib71Nidem4NqmsdStW_-71" vertex="1">
          <mxGeometry x="36" width="144" height="42" as="geometry">
            <mxRectangle width="144" height="42" as="alternateBounds" />
          </mxGeometry>
        </mxCell>
        <mxCell id="7ib71Nidem4NqmsdStW_-73" style="shape=partialRectangle;html=1;whiteSpace=wrap;connectable=0;fillColor=none;top=0;left=0;bottom=0;right=0;overflow=hidden;pointerEvents=1;" parent="7ib71Nidem4NqmsdStW_-71" vertex="1">
          <mxGeometry x="180" width="124" height="42" as="geometry">
            <mxRectangle width="124" height="42" as="alternateBounds" />
          </mxGeometry>
        </mxCell>
        <mxCell id="7ib71Nidem4NqmsdStW_-74" style="shape=partialRectangle;html=1;whiteSpace=wrap;connectable=0;fillColor=none;top=0;left=0;bottom=0;right=0;overflow=hidden;pointerEvents=1;" parent="7ib71Nidem4NqmsdStW_-71" vertex="1">
          <mxGeometry x="304" width="134" height="42" as="geometry">
            <mxRectangle width="134" height="42" as="alternateBounds" />
          </mxGeometry>
        </mxCell>
        <mxCell id="7ib71Nidem4NqmsdStW_-75" style="shape=partialRectangle;html=1;whiteSpace=wrap;connectable=0;fillColor=none;top=0;left=0;bottom=0;right=0;overflow=hidden;pointerEvents=1;" parent="7ib71Nidem4NqmsdStW_-71" vertex="1">
          <mxGeometry x="438" width="142" height="42" as="geometry">
            <mxRectangle width="142" height="42" as="alternateBounds" />
          </mxGeometry>
        </mxCell>
        <mxCell id="7ib71Nidem4NqmsdStW_-76" style="shape=partialRectangle;html=1;whiteSpace=wrap;connectable=0;fillColor=none;top=0;left=0;bottom=0;right=0;overflow=hidden;pointerEvents=1;" parent="7ib71Nidem4NqmsdStW_-71" vertex="1">
          <mxGeometry x="580" width="143" height="42" as="geometry">
            <mxRectangle width="143" height="42" as="alternateBounds" />
          </mxGeometry>
        </mxCell>
        <mxCell id="7ib71Nidem4NqmsdStW_-77" style="shape=partialRectangle;html=1;whiteSpace=wrap;connectable=0;fillColor=none;top=0;left=0;bottom=0;right=0;overflow=hidden;pointerEvents=1;" parent="7ib71Nidem4NqmsdStW_-71" vertex="1">
          <mxGeometry x="723" width="143" height="42" as="geometry">
            <mxRectangle width="143" height="42" as="alternateBounds" />
          </mxGeometry>
        </mxCell>
        <mxCell id="7ib71Nidem4NqmsdStW_-78" style="shape=partialRectangle;html=1;whiteSpace=wrap;connectable=0;fillColor=none;top=0;left=0;bottom=0;right=0;overflow=hidden;pointerEvents=1;" parent="7ib71Nidem4NqmsdStW_-71" vertex="1">
          <mxGeometry x="866" width="144" height="42" as="geometry">
            <mxRectangle width="144" height="42" as="alternateBounds" />
          </mxGeometry>
        </mxCell>
        <mxCell id="7ib71Nidem4NqmsdStW_-79" value="PASSED" style="rounded=0;whiteSpace=wrap;html=1;align=center;fillColor=#d5e8d4;strokeColor=#009900;" parent="jKOx8MgDiJnZx1pA27ru-1" vertex="1">
          <mxGeometry x="61" y="700" width="109" height="30" as="geometry" />
        </mxCell>
        <mxCell id="7ib71Nidem4NqmsdStW_-80" value="FAILED" style="rounded=0;whiteSpace=wrap;html=1;align=center;fillColor=#f8cecc;strokeColor=#b85450;" parent="jKOx8MgDiJnZx1pA27ru-1" vertex="1">
          <mxGeometry x="200.5" y="700" width="109" height="30" as="geometry" />
        </mxCell>
        <mxCell id="7ib71Nidem4NqmsdStW_-82" value="&lt;font style=&quot;font-size: 12px ; font-weight: normal&quot;&gt;SELECT ALL&lt;/font&gt;" style="text;html=1;strokeColor=none;fillColor=none;align=center;verticalAlign=middle;whiteSpace=wrap;rounded=0;fontSize=18;fontStyle=1" parent="jKOx8MgDiJnZx1pA27ru-1" vertex="1">
          <mxGeometry x="85.5" y="255" width="74.5" height="30" as="geometry" />
        </mxCell>
        <mxCell id="7ib71Nidem4NqmsdStW_-93" value="" style="strokeWidth=1;shadow=0;dashed=0;align=center;html=1;shape=mxgraph.mockup.forms.rrect;rSize=0;fillColor=#eeeeee;strokeColor=#999999;gradientColor=#cccccc;align=left;spacingLeft=4;fontSize=17;fontColor=#666666;labelPosition=right;" parent="jKOx8MgDiJnZx1pA27ru-1" vertex="1">
          <mxGeometry x="61" y="355.5" width="15" height="15" as="geometry" />
        </mxCell>
        <mxCell id="7ib71Nidem4NqmsdStW_-95" value="" style="strokeWidth=1;shadow=0;dashed=0;align=center;html=1;shape=mxgraph.mockup.forms.rrect;rSize=0;fillColor=#eeeeee;strokeColor=#999999;gradientColor=#cccccc;align=left;spacingLeft=4;fontSize=17;fontColor=#666666;labelPosition=right;" parent="jKOx8MgDiJnZx1pA27ru-1" vertex="1">
          <mxGeometry x="61" y="400" width="15" height="15" as="geometry" />
        </mxCell>
        <mxCell id="7ib71Nidem4NqmsdStW_-96" value="" style="strokeWidth=1;shadow=0;dashed=0;align=center;html=1;shape=mxgraph.mockup.forms.rrect;rSize=0;fillColor=#eeeeee;strokeColor=#999999;gradientColor=#cccccc;align=left;spacingLeft=4;fontSize=17;fontColor=#666666;labelPosition=right;" parent="jKOx8MgDiJnZx1pA27ru-1" vertex="1">
          <mxGeometry x="60" y="440" width="15" height="15" as="geometry" />
        </mxCell>
        <mxCell id="7ib71Nidem4NqmsdStW_-97" value="" style="strokeWidth=1;shadow=0;dashed=0;align=center;html=1;shape=mxgraph.mockup.forms.rrect;rSize=0;fillColor=#eeeeee;strokeColor=#999999;gradientColor=#cccccc;align=left;spacingLeft=4;fontSize=17;fontColor=#666666;labelPosition=right;" parent="jKOx8MgDiJnZx1pA27ru-1" vertex="1">
          <mxGeometry x="61" y="481.5" width="15" height="15" as="geometry" />
        </mxCell>
        <mxCell id="7ib71Nidem4NqmsdStW_-98" value="" style="strokeWidth=1;shadow=0;dashed=0;align=center;html=1;shape=mxgraph.mockup.forms.rrect;rSize=0;fillColor=#eeeeee;strokeColor=#999999;gradientColor=#cccccc;align=left;spacingLeft=4;fontSize=17;fontColor=#666666;labelPosition=right;" parent="jKOx8MgDiJnZx1pA27ru-1" vertex="1">
          <mxGeometry x="61" y="520" width="15" height="15" as="geometry" />
        </mxCell>
        <mxCell id="7ib71Nidem4NqmsdStW_-99" value="" style="strokeWidth=1;shadow=0;dashed=0;align=center;html=1;shape=mxgraph.mockup.forms.rrect;rSize=0;fillColor=#eeeeee;strokeColor=#999999;gradientColor=#cccccc;align=left;spacingLeft=4;fontSize=17;fontColor=#666666;labelPosition=right;" parent="jKOx8MgDiJnZx1pA27ru-1" vertex="1">
          <mxGeometry x="61" y="570" width="15" height="15" as="geometry" />
        </mxCell>
        <mxCell id="7ib71Nidem4NqmsdStW_-101" value="" style="strokeWidth=1;shadow=0;dashed=0;align=center;html=1;shape=mxgraph.mockup.containers.browserWindow;rSize=0;strokeColor=none;strokeColor2=#008cff;strokeColor3=#c4c4c4;mainText=,;recursiveResize=0;fontSize=25;fillColor=none;" parent="jKOx8MgDiJnZx1pA27ru-1" vertex="1">
          <mxGeometry y="12" width="1120" height="850" as="geometry" />
        </mxCell>
        <mxCell id="7ib71Nidem4NqmsdStW_-102" value="" style="line;strokeWidth=2;html=1;fontSize=25;" parent="7ib71Nidem4NqmsdStW_-101" vertex="1">
          <mxGeometry y="760" width="1100" height="10" as="geometry" />
        </mxCell>
        <mxCell id="7ib71Nidem4NqmsdStW_-103" value="Page 1" style="strokeWidth=1;shadow=0;dashed=0;align=center;html=1;shape=mxgraph.mockup.containers.anchor;fontSize=17;fontColor=#666666;align=left;" parent="7ib71Nidem4NqmsdStW_-101" vertex="1">
          <mxGeometry x="60" y="12" width="110" height="26" as="geometry" />
        </mxCell>
        <mxCell id="7ib71Nidem4NqmsdStW_-104" value="https://tupc.edu.ph/admission/interviewer-table.html" style="strokeWidth=1;shadow=0;dashed=0;align=center;html=1;shape=mxgraph.mockup.containers.anchor;rSize=0;fontSize=17;fontColor=#666666;align=left;" parent="7ib71Nidem4NqmsdStW_-101" vertex="1">
          <mxGeometry x="130" y="60" width="250" height="26" as="geometry" />
        </mxCell>
        <mxCell id="7ib71Nidem4NqmsdStW_-105" value="&lt;h1&gt;&lt;b&gt;&lt;font style=&quot;font-size: 25px&quot;&gt;TECHNOLOGICAL UNIVERSITY OF THE PHILIPPINES - CAVITE&lt;/font&gt;&lt;/b&gt;&lt;/h1&gt;" style="text;html=1;points=[];align=left;verticalAlign=top;spacingTop=-4;fontSize=14;fontFamily=Verdana" parent="7ib71Nidem4NqmsdStW_-101" vertex="1">
          <mxGeometry x="160" y="130" width="540" height="60" as="geometry" />
        </mxCell>
        <mxCell id="7ib71Nidem4NqmsdStW_-106" value="LOGO" style="ellipse;shape=doubleEllipse;whiteSpace=wrap;html=1;fontSize=25;" parent="7ib71Nidem4NqmsdStW_-101" vertex="1">
          <mxGeometry x="50" y="120" width="100" height="100" as="geometry" />
        </mxCell>
        <mxCell id="7ib71Nidem4NqmsdStW_-107" value="" style="line;strokeWidth=2;html=1;fontSize=25;" parent="7ib71Nidem4NqmsdStW_-101" vertex="1">
          <mxGeometry y="230" width="1100" height="10" as="geometry" />
        </mxCell>
        <mxCell id="7ib71Nidem4NqmsdStW_-108" value="" style="verticalLabelPosition=bottom;shadow=0;dashed=0;align=center;html=1;verticalAlign=top;strokeWidth=1;shape=mxgraph.mockup.navigation.scrollBar;strokeColor=#999999;barPos=20;fillColor2=#99ddff;strokeColor2=none;direction=north;fontSize=25;" parent="7ib71Nidem4NqmsdStW_-101" vertex="1">
          <mxGeometry x="1100" y="110" width="30" height="740" as="geometry" />
        </mxCell>
        <mxCell id="7ib71Nidem4NqmsdStW_-109" value="&lt;span style=&quot;font-family: &amp;#34;euphemia&amp;#34; ; font-size: 10.72px ; font-weight: 700&quot;&gt;(icon-tel) (046) 416-4920 (icon-email) cavite@tup.edu.ph (icon-web) www.tup.edu.ph&lt;br&gt;&lt;/span&gt;&lt;span style=&quot;font-family: &amp;#34;euphemia&amp;#34; ; font-size: 10.72px ; font-weight: 700&quot;&gt;(icon-add) Carlos Q. Trinidad Avenue, Salawag, DasmariÃ±as City, Cavite, Philippines&lt;/span&gt;&lt;span style=&quot;font-family: &amp;#34;euphemia&amp;#34; ; font-size: 10.72px ; font-weight: 700&quot;&gt;&lt;br&gt;&lt;/span&gt;" style="rounded=0;whiteSpace=wrap;html=1;fontSize=20;strokeWidth=1;fillColor=none;align=left;verticalAlign=top;strokeColor=none;" parent="7ib71Nidem4NqmsdStW_-101" vertex="1">
          <mxGeometry x="310" y="780" width="480" height="60" as="geometry" />
        </mxCell>
        <mxCell id="7ib71Nidem4NqmsdStW_-111" value="" style="shape=table;html=1;whiteSpace=wrap;startSize=0;container=1;collapsible=0;childLayout=tableLayout;" parent="7ib71Nidem4NqmsdStW_-101" vertex="1">
          <mxGeometry x="50" y="300" width="1010" height="378" as="geometry" />
        </mxCell>
        <mxCell id="7ib71Nidem4NqmsdStW_-112" value="" style="shape=partialRectangle;html=1;whiteSpace=wrap;collapsible=0;dropTarget=0;pointerEvents=0;fillColor=none;top=0;left=0;bottom=0;right=0;points=[[0,0.5],[1,0.5]];portConstraint=eastwest;" parent="7ib71Nidem4NqmsdStW_-111" vertex="1">
          <mxGeometry width="1010" height="42" as="geometry" />
        </mxCell>
        <mxCell id="7ib71Nidem4NqmsdStW_-113" style="shape=partialRectangle;html=1;whiteSpace=wrap;connectable=0;fillColor=none;top=0;left=0;bottom=0;right=0;overflow=hidden;pointerEvents=1;" parent="7ib71Nidem4NqmsdStW_-112" vertex="1">
          <mxGeometry width="36" height="42" as="geometry">
            <mxRectangle width="36" height="42" as="alternateBounds" />
          </mxGeometry>
        </mxCell>
        <mxCell id="7ib71Nidem4NqmsdStW_-114" value="&lt;b&gt;NAME&lt;/b&gt;" style="shape=partialRectangle;html=1;whiteSpace=wrap;connectable=0;fillColor=none;top=0;left=0;bottom=0;right=0;overflow=hidden;pointerEvents=1;" parent="7ib71Nidem4NqmsdStW_-112" vertex="1">
          <mxGeometry x="36" width="164" height="42" as="geometry">
            <mxRectangle width="164" height="42" as="alternateBounds" />
          </mxGeometry>
        </mxCell>
        <mxCell id="7ib71Nidem4NqmsdStW_-115" value="&lt;b&gt;ID&lt;/b&gt;" style="shape=partialRectangle;html=1;whiteSpace=wrap;connectable=0;fillColor=none;top=0;left=0;bottom=0;right=0;overflow=hidden;pointerEvents=1;" parent="7ib71Nidem4NqmsdStW_-112" vertex="1">
          <mxGeometry x="200" width="104" height="42" as="geometry">
            <mxRectangle width="104" height="42" as="alternateBounds" />
          </mxGeometry>
        </mxCell>
        <mxCell id="7ib71Nidem4NqmsdStW_-116" value="&lt;b&gt;EMAIL&lt;/b&gt;" style="shape=partialRectangle;html=1;whiteSpace=wrap;connectable=0;fillColor=none;top=0;left=0;bottom=0;right=0;overflow=hidden;pointerEvents=1;" parent="7ib71Nidem4NqmsdStW_-112" vertex="1">
          <mxGeometry x="304" width="156" height="42" as="geometry">
            <mxRectangle width="156" height="42" as="alternateBounds" />
          </mxGeometry>
        </mxCell>
        <mxCell id="7ib71Nidem4NqmsdStW_-117" value="&lt;b&gt;CONTACT NUMBER&lt;/b&gt;" style="shape=partialRectangle;html=1;whiteSpace=wrap;connectable=0;fillColor=none;top=0;left=0;bottom=0;right=0;overflow=hidden;pointerEvents=1;" parent="7ib71Nidem4NqmsdStW_-112" vertex="1">
          <mxGeometry x="460" width="140" height="42" as="geometry">
            <mxRectangle width="140" height="42" as="alternateBounds" />
          </mxGeometry>
        </mxCell>
        <mxCell id="7ib71Nidem4NqmsdStW_-118" value="&lt;b&gt;COURSE APPLIED&lt;/b&gt;" style="shape=partialRectangle;html=1;whiteSpace=wrap;connectable=0;fillColor=none;top=0;left=0;bottom=0;right=0;overflow=hidden;pointerEvents=1;" parent="7ib71Nidem4NqmsdStW_-112" vertex="1">
          <mxGeometry x="600" width="140" height="42" as="geometry">
            <mxRectangle width="140" height="42" as="alternateBounds" />
          </mxGeometry>
        </mxCell>
        <mxCell id="7ib71Nidem4NqmsdStW_-119" value="&lt;b&gt;DATE OF INTERVIEW&lt;/b&gt;" style="shape=partialRectangle;html=1;whiteSpace=wrap;connectable=0;fillColor=none;top=0;left=0;bottom=0;right=0;overflow=hidden;pointerEvents=1;" parent="7ib71Nidem4NqmsdStW_-112" vertex="1">
          <mxGeometry x="740" width="140" height="42" as="geometry">
            <mxRectangle width="140" height="42" as="alternateBounds" />
          </mxGeometry>
        </mxCell>
        <mxCell id="7ib71Nidem4NqmsdStW_-120" value="&lt;b&gt;RESULT&lt;/b&gt;" style="shape=partialRectangle;html=1;whiteSpace=wrap;connectable=0;fillColor=none;top=0;left=0;bottom=0;right=0;overflow=hidden;pointerEvents=1;" parent="7ib71Nidem4NqmsdStW_-112" vertex="1">
          <mxGeometry x="880" width="130" height="42" as="geometry">
            <mxRectangle width="130" height="42" as="alternateBounds" />
          </mxGeometry>
        </mxCell>
        <mxCell id="7ib71Nidem4NqmsdStW_-121" value="" style="shape=partialRectangle;html=1;whiteSpace=wrap;collapsible=0;dropTarget=0;pointerEvents=0;fillColor=none;top=0;left=0;bottom=0;right=0;points=[[0,0.5],[1,0.5]];portConstraint=eastwest;" parent="7ib71Nidem4NqmsdStW_-111" vertex="1">
          <mxGeometry y="42" width="1010" height="42" as="geometry" />
        </mxCell>
        <mxCell id="7ib71Nidem4NqmsdStW_-122" style="shape=partialRectangle;html=1;whiteSpace=wrap;connectable=0;fillColor=none;top=0;left=0;bottom=0;right=0;overflow=hidden;pointerEvents=1;align=left;" parent="7ib71Nidem4NqmsdStW_-121" vertex="1">
          <mxGeometry width="36" height="42" as="geometry">
            <mxRectangle width="36" height="42" as="alternateBounds" />
          </mxGeometry>
        </mxCell>
        <mxCell id="7ib71Nidem4NqmsdStW_-123" value="&amp;nbsp;PAOLO FRENCILLO" style="shape=partialRectangle;html=1;whiteSpace=wrap;connectable=0;fillColor=none;top=0;left=0;bottom=0;right=0;overflow=hidden;pointerEvents=1;align=left;" parent="7ib71Nidem4NqmsdStW_-121" vertex="1">
          <mxGeometry x="36" width="164" height="42" as="geometry">
            <mxRectangle width="164" height="42" as="alternateBounds" />
          </mxGeometry>
        </mxCell>
        <mxCell id="7ib71Nidem4NqmsdStW_-124" value="1" style="shape=partialRectangle;html=1;whiteSpace=wrap;connectable=0;fillColor=none;top=0;left=0;bottom=0;right=0;overflow=hidden;pointerEvents=1;" parent="7ib71Nidem4NqmsdStW_-121" vertex="1">
          <mxGeometry x="200" width="104" height="42" as="geometry">
            <mxRectangle width="104" height="42" as="alternateBounds" />
          </mxGeometry>
        </mxCell>
        <mxCell id="7ib71Nidem4NqmsdStW_-125" value="asd@gmail.com" style="shape=partialRectangle;html=1;whiteSpace=wrap;connectable=0;fillColor=none;top=0;left=0;bottom=0;right=0;overflow=hidden;pointerEvents=1;" parent="7ib71Nidem4NqmsdStW_-121" vertex="1">
          <mxGeometry x="304" width="156" height="42" as="geometry">
            <mxRectangle width="156" height="42" as="alternateBounds" />
          </mxGeometry>
        </mxCell>
        <mxCell id="7ib71Nidem4NqmsdStW_-126" value="09XXXXXXX" style="shape=partialRectangle;html=1;whiteSpace=wrap;connectable=0;fillColor=none;top=0;left=0;bottom=0;right=0;overflow=hidden;pointerEvents=1;" parent="7ib71Nidem4NqmsdStW_-121" vertex="1">
          <mxGeometry x="460" width="140" height="42" as="geometry">
            <mxRectangle width="140" height="42" as="alternateBounds" />
          </mxGeometry>
        </mxCell>
        <mxCell id="7ib71Nidem4NqmsdStW_-127" value="BET-COET" style="shape=partialRectangle;html=1;whiteSpace=wrap;connectable=0;fillColor=none;top=0;left=0;bottom=0;right=0;overflow=hidden;pointerEvents=1;" parent="7ib71Nidem4NqmsdStW_-121" vertex="1">
          <mxGeometry x="600" width="140" height="42" as="geometry">
            <mxRectangle width="140" height="42" as="alternateBounds" />
          </mxGeometry>
        </mxCell>
        <mxCell id="7ib71Nidem4NqmsdStW_-128" value="XX-XX-XX" style="shape=partialRectangle;html=1;whiteSpace=wrap;connectable=0;fillColor=none;top=0;left=0;bottom=0;right=0;overflow=hidden;pointerEvents=1;" parent="7ib71Nidem4NqmsdStW_-121" vertex="1">
          <mxGeometry x="740" width="140" height="42" as="geometry">
            <mxRectangle width="140" height="42" as="alternateBounds" />
          </mxGeometry>
        </mxCell>
        <mxCell id="7ib71Nidem4NqmsdStW_-129" value="PASSED" style="shape=partialRectangle;html=1;whiteSpace=wrap;connectable=0;fillColor=none;top=0;left=0;bottom=0;right=0;overflow=hidden;pointerEvents=1;" parent="7ib71Nidem4NqmsdStW_-121" vertex="1">
          <mxGeometry x="880" width="130" height="42" as="geometry">
            <mxRectangle width="130" height="42" as="alternateBounds" />
          </mxGeometry>
        </mxCell>
        <mxCell id="7ib71Nidem4NqmsdStW_-130" value="" style="shape=partialRectangle;html=1;whiteSpace=wrap;collapsible=0;dropTarget=0;pointerEvents=0;fillColor=none;top=0;left=0;bottom=0;right=0;points=[[0,0.5],[1,0.5]];portConstraint=eastwest;" parent="7ib71Nidem4NqmsdStW_-111" vertex="1">
          <mxGeometry y="84" width="1010" height="42" as="geometry" />
        </mxCell>
        <mxCell id="7ib71Nidem4NqmsdStW_-131" style="shape=partialRectangle;html=1;whiteSpace=wrap;connectable=0;fillColor=none;top=0;left=0;bottom=0;right=0;overflow=hidden;pointerEvents=1;align=left;" parent="7ib71Nidem4NqmsdStW_-130" vertex="1">
          <mxGeometry width="36" height="42" as="geometry">
            <mxRectangle width="36" height="42" as="alternateBounds" />
          </mxGeometry>
        </mxCell>
        <mxCell id="7ib71Nidem4NqmsdStW_-132" value="&amp;nbsp;CEFRIN PAANOD" style="shape=partialRectangle;html=1;whiteSpace=wrap;connectable=0;fillColor=none;top=0;left=0;bottom=0;right=0;overflow=hidden;pointerEvents=1;align=left;" parent="7ib71Nidem4NqmsdStW_-130" vertex="1">
          <mxGeometry x="36" width="164" height="42" as="geometry">
            <mxRectangle width="164" height="42" as="alternateBounds" />
          </mxGeometry>
        </mxCell>
        <mxCell id="7ib71Nidem4NqmsdStW_-133" value="2" style="shape=partialRectangle;html=1;whiteSpace=wrap;connectable=0;fillColor=none;top=0;left=0;bottom=0;right=0;overflow=hidden;pointerEvents=1;" parent="7ib71Nidem4NqmsdStW_-130" vertex="1">
          <mxGeometry x="200" width="104" height="42" as="geometry">
            <mxRectangle width="104" height="42" as="alternateBounds" />
          </mxGeometry>
        </mxCell>
        <mxCell id="7ib71Nidem4NqmsdStW_-134" value="qweerty@gmail.com" style="shape=partialRectangle;html=1;whiteSpace=wrap;connectable=0;fillColor=none;top=0;left=0;bottom=0;right=0;overflow=hidden;pointerEvents=1;" parent="7ib71Nidem4NqmsdStW_-130" vertex="1">
          <mxGeometry x="304" width="156" height="42" as="geometry">
            <mxRectangle width="156" height="42" as="alternateBounds" />
          </mxGeometry>
        </mxCell>
        <mxCell id="7ib71Nidem4NqmsdStW_-135" value="09XXXXXXX" style="shape=partialRectangle;html=1;whiteSpace=wrap;connectable=0;fillColor=none;top=0;left=0;bottom=0;right=0;overflow=hidden;pointerEvents=1;" parent="7ib71Nidem4NqmsdStW_-130" vertex="1">
          <mxGeometry x="460" width="140" height="42" as="geometry">
            <mxRectangle width="140" height="42" as="alternateBounds" />
          </mxGeometry>
        </mxCell>
        <mxCell id="7ib71Nidem4NqmsdStW_-136" value="BET-ESET" style="shape=partialRectangle;html=1;whiteSpace=wrap;connectable=0;fillColor=none;top=0;left=0;bottom=0;right=0;overflow=hidden;pointerEvents=1;" parent="7ib71Nidem4NqmsdStW_-130" vertex="1">
          <mxGeometry x="600" width="140" height="42" as="geometry">
            <mxRectangle width="140" height="42" as="alternateBounds" />
          </mxGeometry>
        </mxCell>
        <mxCell id="7ib71Nidem4NqmsdStW_-137" value="XX-XX-XX" style="shape=partialRectangle;html=1;whiteSpace=wrap;connectable=0;fillColor=none;top=0;left=0;bottom=0;right=0;overflow=hidden;pointerEvents=1;" parent="7ib71Nidem4NqmsdStW_-130" vertex="1">
          <mxGeometry x="740" width="140" height="42" as="geometry">
            <mxRectangle width="140" height="42" as="alternateBounds" />
          </mxGeometry>
        </mxCell>
        <mxCell id="7ib71Nidem4NqmsdStW_-138" value="FAILED" style="shape=partialRectangle;html=1;whiteSpace=wrap;connectable=0;fillColor=none;top=0;left=0;bottom=0;right=0;overflow=hidden;pointerEvents=1;" parent="7ib71Nidem4NqmsdStW_-130" vertex="1">
          <mxGeometry x="880" width="130" height="42" as="geometry">
            <mxRectangle width="130" height="42" as="alternateBounds" />
          </mxGeometry>
        </mxCell>
        <mxCell id="7ib71Nidem4NqmsdStW_-139" style="shape=partialRectangle;html=1;whiteSpace=wrap;collapsible=0;dropTarget=0;pointerEvents=0;fillColor=none;top=0;left=0;bottom=0;right=0;points=[[0,0.5],[1,0.5]];portConstraint=eastwest;" parent="7ib71Nidem4NqmsdStW_-111" vertex="1">
          <mxGeometry y="126" width="1010" height="42" as="geometry" />
        </mxCell>
        <mxCell id="7ib71Nidem4NqmsdStW_-140" style="shape=partialRectangle;html=1;whiteSpace=wrap;connectable=0;fillColor=none;top=0;left=0;bottom=0;right=0;overflow=hidden;pointerEvents=1;align=left;" parent="7ib71Nidem4NqmsdStW_-139" vertex="1">
          <mxGeometry width="36" height="42" as="geometry">
            <mxRectangle width="36" height="42" as="alternateBounds" />
          </mxGeometry>
        </mxCell>
        <mxCell id="7ib71Nidem4NqmsdStW_-141" value="&amp;nbsp;VINCENT JAKE MONTARIL" style="shape=partialRectangle;html=1;whiteSpace=wrap;connectable=0;fillColor=none;top=0;left=0;bottom=0;right=0;overflow=hidden;pointerEvents=1;align=left;" parent="7ib71Nidem4NqmsdStW_-139" vertex="1">
          <mxGeometry x="36" width="164" height="42" as="geometry">
            <mxRectangle width="164" height="42" as="alternateBounds" />
          </mxGeometry>
        </mxCell>
        <mxCell id="7ib71Nidem4NqmsdStW_-142" value="3" style="shape=partialRectangle;html=1;whiteSpace=wrap;connectable=0;fillColor=none;top=0;left=0;bottom=0;right=0;overflow=hidden;pointerEvents=1;" parent="7ib71Nidem4NqmsdStW_-139" vertex="1">
          <mxGeometry x="200" width="104" height="42" as="geometry">
            <mxRectangle width="104" height="42" as="alternateBounds" />
          </mxGeometry>
        </mxCell>
        <mxCell id="7ib71Nidem4NqmsdStW_-143" value="abc@yahoo.com" style="shape=partialRectangle;html=1;whiteSpace=wrap;connectable=0;fillColor=none;top=0;left=0;bottom=0;right=0;overflow=hidden;pointerEvents=1;" parent="7ib71Nidem4NqmsdStW_-139" vertex="1">
          <mxGeometry x="304" width="156" height="42" as="geometry">
            <mxRectangle width="156" height="42" as="alternateBounds" />
          </mxGeometry>
        </mxCell>
        <mxCell id="7ib71Nidem4NqmsdStW_-144" value="09XXXXXXX" style="shape=partialRectangle;html=1;whiteSpace=wrap;connectable=0;fillColor=none;top=0;left=0;bottom=0;right=0;overflow=hidden;pointerEvents=1;" parent="7ib71Nidem4NqmsdStW_-139" vertex="1">
          <mxGeometry x="460" width="140" height="42" as="geometry">
            <mxRectangle width="140" height="42" as="alternateBounds" />
          </mxGeometry>
        </mxCell>
        <mxCell id="7ib71Nidem4NqmsdStW_-145" value="BET-COET" style="shape=partialRectangle;html=1;whiteSpace=wrap;connectable=0;fillColor=none;top=0;left=0;bottom=0;right=0;overflow=hidden;pointerEvents=1;" parent="7ib71Nidem4NqmsdStW_-139" vertex="1">
          <mxGeometry x="600" width="140" height="42" as="geometry">
            <mxRectangle width="140" height="42" as="alternateBounds" />
          </mxGeometry>
        </mxCell>
        <mxCell id="7ib71Nidem4NqmsdStW_-146" value="&lt;span&gt;XX-XX-XX&lt;/span&gt;" style="shape=partialRectangle;html=1;whiteSpace=wrap;connectable=0;fillColor=none;top=0;left=0;bottom=0;right=0;overflow=hidden;pointerEvents=1;" parent="7ib71Nidem4NqmsdStW_-139" vertex="1">
          <mxGeometry x="740" width="140" height="42" as="geometry">
            <mxRectangle width="140" height="42" as="alternateBounds" />
          </mxGeometry>
        </mxCell>
        <mxCell id="7ib71Nidem4NqmsdStW_-147" value="NO RESULT" style="shape=partialRectangle;html=1;whiteSpace=wrap;connectable=0;fillColor=none;top=0;left=0;bottom=0;right=0;overflow=hidden;pointerEvents=1;" parent="7ib71Nidem4NqmsdStW_-139" vertex="1">
          <mxGeometry x="880" width="130" height="42" as="geometry">
            <mxRectangle width="130" height="42" as="alternateBounds" />
          </mxGeometry>
        </mxCell>
        <mxCell id="7ib71Nidem4NqmsdStW_-148" style="shape=partialRectangle;html=1;whiteSpace=wrap;collapsible=0;dropTarget=0;pointerEvents=0;fillColor=none;top=0;left=0;bottom=0;right=0;points=[[0,0.5],[1,0.5]];portConstraint=eastwest;" parent="7ib71Nidem4NqmsdStW_-111" vertex="1">
          <mxGeometry y="168" width="1010" height="42" as="geometry" />
        </mxCell>
        <mxCell id="7ib71Nidem4NqmsdStW_-149" style="shape=partialRectangle;html=1;whiteSpace=wrap;connectable=0;fillColor=none;top=0;left=0;bottom=0;right=0;overflow=hidden;pointerEvents=1;" parent="7ib71Nidem4NqmsdStW_-148" vertex="1">
          <mxGeometry width="36" height="42" as="geometry">
            <mxRectangle width="36" height="42" as="alternateBounds" />
          </mxGeometry>
        </mxCell>
        <mxCell id="7ib71Nidem4NqmsdStW_-150" value="&amp;nbsp;RONIEL KILARIO" style="shape=partialRectangle;html=1;whiteSpace=wrap;connectable=0;fillColor=none;top=0;left=0;bottom=0;right=0;overflow=hidden;pointerEvents=1;align=left;" parent="7ib71Nidem4NqmsdStW_-148" vertex="1">
          <mxGeometry x="36" width="164" height="42" as="geometry">
            <mxRectangle width="164" height="42" as="alternateBounds" />
          </mxGeometry>
        </mxCell>
        <mxCell id="7ib71Nidem4NqmsdStW_-151" value="4" style="shape=partialRectangle;html=1;whiteSpace=wrap;connectable=0;fillColor=none;top=0;left=0;bottom=0;right=0;overflow=hidden;pointerEvents=1;" parent="7ib71Nidem4NqmsdStW_-148" vertex="1">
          <mxGeometry x="200" width="104" height="42" as="geometry">
            <mxRectangle width="104" height="42" as="alternateBounds" />
          </mxGeometry>
        </mxCell>
        <mxCell id="7ib71Nidem4NqmsdStW_-152" value="haha@gege.com" style="shape=partialRectangle;html=1;whiteSpace=wrap;connectable=0;fillColor=none;top=0;left=0;bottom=0;right=0;overflow=hidden;pointerEvents=1;" parent="7ib71Nidem4NqmsdStW_-148" vertex="1">
          <mxGeometry x="304" width="156" height="42" as="geometry">
            <mxRectangle width="156" height="42" as="alternateBounds" />
          </mxGeometry>
        </mxCell>
        <mxCell id="7ib71Nidem4NqmsdStW_-153" value="09XXXXXXX" style="shape=partialRectangle;html=1;whiteSpace=wrap;connectable=0;fillColor=none;top=0;left=0;bottom=0;right=0;overflow=hidden;pointerEvents=1;" parent="7ib71Nidem4NqmsdStW_-148" vertex="1">
          <mxGeometry x="460" width="140" height="42" as="geometry">
            <mxRectangle width="140" height="42" as="alternateBounds" />
          </mxGeometry>
        </mxCell>
        <mxCell id="7ib71Nidem4NqmsdStW_-154" value="BS ASTRONAUT" style="shape=partialRectangle;html=1;whiteSpace=wrap;connectable=0;fillColor=none;top=0;left=0;bottom=0;right=0;overflow=hidden;pointerEvents=1;" parent="7ib71Nidem4NqmsdStW_-148" vertex="1">
          <mxGeometry x="600" width="140" height="42" as="geometry">
            <mxRectangle width="140" height="42" as="alternateBounds" />
          </mxGeometry>
        </mxCell>
        <mxCell id="7ib71Nidem4NqmsdStW_-155" value="XX-XX-XX" style="shape=partialRectangle;html=1;whiteSpace=wrap;connectable=0;fillColor=none;top=0;left=0;bottom=0;right=0;overflow=hidden;pointerEvents=1;" parent="7ib71Nidem4NqmsdStW_-148" vertex="1">
          <mxGeometry x="740" width="140" height="42" as="geometry">
            <mxRectangle width="140" height="42" as="alternateBounds" />
          </mxGeometry>
        </mxCell>
        <mxCell id="7ib71Nidem4NqmsdStW_-156" value="NO RESULT" style="shape=partialRectangle;html=1;whiteSpace=wrap;connectable=0;fillColor=none;top=0;left=0;bottom=0;right=0;overflow=hidden;pointerEvents=1;" parent="7ib71Nidem4NqmsdStW_-148" vertex="1">
          <mxGeometry x="880" width="130" height="42" as="geometry">
            <mxRectangle width="130" height="42" as="alternateBounds" />
          </mxGeometry>
        </mxCell>
        <mxCell id="7ib71Nidem4NqmsdStW_-157" style="shape=partialRectangle;html=1;whiteSpace=wrap;collapsible=0;dropTarget=0;pointerEvents=0;fillColor=none;top=0;left=0;bottom=0;right=0;points=[[0,0.5],[1,0.5]];portConstraint=eastwest;" parent="7ib71Nidem4NqmsdStW_-111" vertex="1">
          <mxGeometry y="210" width="1010" height="42" as="geometry" />
        </mxCell>
        <mxCell id="7ib71Nidem4NqmsdStW_-158" style="shape=partialRectangle;html=1;whiteSpace=wrap;connectable=0;fillColor=none;top=0;left=0;bottom=0;right=0;overflow=hidden;pointerEvents=1;" parent="7ib71Nidem4NqmsdStW_-157" vertex="1">
          <mxGeometry width="36" height="42" as="geometry">
            <mxRectangle width="36" height="42" as="alternateBounds" />
          </mxGeometry>
        </mxCell>
        <mxCell id="7ib71Nidem4NqmsdStW_-159" style="shape=partialRectangle;html=1;whiteSpace=wrap;connectable=0;fillColor=none;top=0;left=0;bottom=0;right=0;overflow=hidden;pointerEvents=1;" parent="7ib71Nidem4NqmsdStW_-157" vertex="1">
          <mxGeometry x="36" width="164" height="42" as="geometry">
            <mxRectangle width="164" height="42" as="alternateBounds" />
          </mxGeometry>
        </mxCell>
        <mxCell id="7ib71Nidem4NqmsdStW_-160" style="shape=partialRectangle;html=1;whiteSpace=wrap;connectable=0;fillColor=none;top=0;left=0;bottom=0;right=0;overflow=hidden;pointerEvents=1;" parent="7ib71Nidem4NqmsdStW_-157" vertex="1">
          <mxGeometry x="200" width="104" height="42" as="geometry">
            <mxRectangle width="104" height="42" as="alternateBounds" />
          </mxGeometry>
        </mxCell>
        <mxCell id="7ib71Nidem4NqmsdStW_-161" style="shape=partialRectangle;html=1;whiteSpace=wrap;connectable=0;fillColor=none;top=0;left=0;bottom=0;right=0;overflow=hidden;pointerEvents=1;" parent="7ib71Nidem4NqmsdStW_-157" vertex="1">
          <mxGeometry x="304" width="156" height="42" as="geometry">
            <mxRectangle width="156" height="42" as="alternateBounds" />
          </mxGeometry>
        </mxCell>
        <mxCell id="7ib71Nidem4NqmsdStW_-162" style="shape=partialRectangle;html=1;whiteSpace=wrap;connectable=0;fillColor=none;top=0;left=0;bottom=0;right=0;overflow=hidden;pointerEvents=1;" parent="7ib71Nidem4NqmsdStW_-157" vertex="1">
          <mxGeometry x="460" width="140" height="42" as="geometry">
            <mxRectangle width="140" height="42" as="alternateBounds" />
          </mxGeometry>
        </mxCell>
        <mxCell id="7ib71Nidem4NqmsdStW_-163" style="shape=partialRectangle;html=1;whiteSpace=wrap;connectable=0;fillColor=none;top=0;left=0;bottom=0;right=0;overflow=hidden;pointerEvents=1;" parent="7ib71Nidem4NqmsdStW_-157" vertex="1">
          <mxGeometry x="600" width="140" height="42" as="geometry">
            <mxRectangle width="140" height="42" as="alternateBounds" />
          </mxGeometry>
        </mxCell>
        <mxCell id="7ib71Nidem4NqmsdStW_-164" style="shape=partialRectangle;html=1;whiteSpace=wrap;connectable=0;fillColor=none;top=0;left=0;bottom=0;right=0;overflow=hidden;pointerEvents=1;" parent="7ib71Nidem4NqmsdStW_-157" vertex="1">
          <mxGeometry x="740" width="140" height="42" as="geometry">
            <mxRectangle width="140" height="42" as="alternateBounds" />
          </mxGeometry>
        </mxCell>
        <mxCell id="7ib71Nidem4NqmsdStW_-165" style="shape=partialRectangle;html=1;whiteSpace=wrap;connectable=0;fillColor=none;top=0;left=0;bottom=0;right=0;overflow=hidden;pointerEvents=1;" parent="7ib71Nidem4NqmsdStW_-157" vertex="1">
          <mxGeometry x="880" width="130" height="42" as="geometry">
            <mxRectangle width="130" height="42" as="alternateBounds" />
          </mxGeometry>
        </mxCell>
        <mxCell id="7ib71Nidem4NqmsdStW_-166" style="shape=partialRectangle;html=1;whiteSpace=wrap;collapsible=0;dropTarget=0;pointerEvents=0;fillColor=none;top=0;left=0;bottom=0;right=0;points=[[0,0.5],[1,0.5]];portConstraint=eastwest;" parent="7ib71Nidem4NqmsdStW_-111" vertex="1">
          <mxGeometry y="252" width="1010" height="42" as="geometry" />
        </mxCell>
        <mxCell id="7ib71Nidem4NqmsdStW_-167" style="shape=partialRectangle;html=1;whiteSpace=wrap;connectable=0;fillColor=none;top=0;left=0;bottom=0;right=0;overflow=hidden;pointerEvents=1;" parent="7ib71Nidem4NqmsdStW_-166" vertex="1">
          <mxGeometry width="36" height="42" as="geometry">
            <mxRectangle width="36" height="42" as="alternateBounds" />
          </mxGeometry>
        </mxCell>
        <mxCell id="7ib71Nidem4NqmsdStW_-168" style="shape=partialRectangle;html=1;whiteSpace=wrap;connectable=0;fillColor=none;top=0;left=0;bottom=0;right=0;overflow=hidden;pointerEvents=1;" parent="7ib71Nidem4NqmsdStW_-166" vertex="1">
          <mxGeometry x="36" width="164" height="42" as="geometry">
            <mxRectangle width="164" height="42" as="alternateBounds" />
          </mxGeometry>
        </mxCell>
        <mxCell id="7ib71Nidem4NqmsdStW_-169" style="shape=partialRectangle;html=1;whiteSpace=wrap;connectable=0;fillColor=none;top=0;left=0;bottom=0;right=0;overflow=hidden;pointerEvents=1;" parent="7ib71Nidem4NqmsdStW_-166" vertex="1">
          <mxGeometry x="200" width="104" height="42" as="geometry">
            <mxRectangle width="104" height="42" as="alternateBounds" />
          </mxGeometry>
        </mxCell>
        <mxCell id="7ib71Nidem4NqmsdStW_-170" style="shape=partialRectangle;html=1;whiteSpace=wrap;connectable=0;fillColor=none;top=0;left=0;bottom=0;right=0;overflow=hidden;pointerEvents=1;" parent="7ib71Nidem4NqmsdStW_-166" vertex="1">
          <mxGeometry x="304" width="156" height="42" as="geometry">
            <mxRectangle width="156" height="42" as="alternateBounds" />
          </mxGeometry>
        </mxCell>
        <mxCell id="7ib71Nidem4NqmsdStW_-171" style="shape=partialRectangle;html=1;whiteSpace=wrap;connectable=0;fillColor=none;top=0;left=0;bottom=0;right=0;overflow=hidden;pointerEvents=1;" parent="7ib71Nidem4NqmsdStW_-166" vertex="1">
          <mxGeometry x="460" width="140" height="42" as="geometry">
            <mxRectangle width="140" height="42" as="alternateBounds" />
          </mxGeometry>
        </mxCell>
        <mxCell id="7ib71Nidem4NqmsdStW_-172" style="shape=partialRectangle;html=1;whiteSpace=wrap;connectable=0;fillColor=none;top=0;left=0;bottom=0;right=0;overflow=hidden;pointerEvents=1;" parent="7ib71Nidem4NqmsdStW_-166" vertex="1">
          <mxGeometry x="600" width="140" height="42" as="geometry">
            <mxRectangle width="140" height="42" as="alternateBounds" />
          </mxGeometry>
        </mxCell>
        <mxCell id="7ib71Nidem4NqmsdStW_-173" style="shape=partialRectangle;html=1;whiteSpace=wrap;connectable=0;fillColor=none;top=0;left=0;bottom=0;right=0;overflow=hidden;pointerEvents=1;" parent="7ib71Nidem4NqmsdStW_-166" vertex="1">
          <mxGeometry x="740" width="140" height="42" as="geometry">
            <mxRectangle width="140" height="42" as="alternateBounds" />
          </mxGeometry>
        </mxCell>
        <mxCell id="7ib71Nidem4NqmsdStW_-174" style="shape=partialRectangle;html=1;whiteSpace=wrap;connectable=0;fillColor=none;top=0;left=0;bottom=0;right=0;overflow=hidden;pointerEvents=1;" parent="7ib71Nidem4NqmsdStW_-166" vertex="1">
          <mxGeometry x="880" width="130" height="42" as="geometry">
            <mxRectangle width="130" height="42" as="alternateBounds" />
          </mxGeometry>
        </mxCell>
        <mxCell id="7ib71Nidem4NqmsdStW_-175" style="shape=partialRectangle;html=1;whiteSpace=wrap;collapsible=0;dropTarget=0;pointerEvents=0;fillColor=none;top=0;left=0;bottom=0;right=0;points=[[0,0.5],[1,0.5]];portConstraint=eastwest;" parent="7ib71Nidem4NqmsdStW_-111" vertex="1">
          <mxGeometry y="294" width="1010" height="42" as="geometry" />
        </mxCell>
        <mxCell id="7ib71Nidem4NqmsdStW_-176" style="shape=partialRectangle;html=1;whiteSpace=wrap;connectable=0;fillColor=none;top=0;left=0;bottom=0;right=0;overflow=hidden;pointerEvents=1;" parent="7ib71Nidem4NqmsdStW_-175" vertex="1">
          <mxGeometry width="36" height="42" as="geometry">
            <mxRectangle width="36" height="42" as="alternateBounds" />
          </mxGeometry>
        </mxCell>
        <mxCell id="7ib71Nidem4NqmsdStW_-177" style="shape=partialRectangle;html=1;whiteSpace=wrap;connectable=0;fillColor=none;top=0;left=0;bottom=0;right=0;overflow=hidden;pointerEvents=1;" parent="7ib71Nidem4NqmsdStW_-175" vertex="1">
          <mxGeometry x="36" width="164" height="42" as="geometry">
            <mxRectangle width="164" height="42" as="alternateBounds" />
          </mxGeometry>
        </mxCell>
        <mxCell id="7ib71Nidem4NqmsdStW_-178" style="shape=partialRectangle;html=1;whiteSpace=wrap;connectable=0;fillColor=none;top=0;left=0;bottom=0;right=0;overflow=hidden;pointerEvents=1;" parent="7ib71Nidem4NqmsdStW_-175" vertex="1">
          <mxGeometry x="200" width="104" height="42" as="geometry">
            <mxRectangle width="104" height="42" as="alternateBounds" />
          </mxGeometry>
        </mxCell>
        <mxCell id="7ib71Nidem4NqmsdStW_-179" style="shape=partialRectangle;html=1;whiteSpace=wrap;connectable=0;fillColor=none;top=0;left=0;bottom=0;right=0;overflow=hidden;pointerEvents=1;" parent="7ib71Nidem4NqmsdStW_-175" vertex="1">
          <mxGeometry x="304" width="156" height="42" as="geometry">
            <mxRectangle width="156" height="42" as="alternateBounds" />
          </mxGeometry>
        </mxCell>
        <mxCell id="7ib71Nidem4NqmsdStW_-180" style="shape=partialRectangle;html=1;whiteSpace=wrap;connectable=0;fillColor=none;top=0;left=0;bottom=0;right=0;overflow=hidden;pointerEvents=1;" parent="7ib71Nidem4NqmsdStW_-175" vertex="1">
          <mxGeometry x="460" width="140" height="42" as="geometry">
            <mxRectangle width="140" height="42" as="alternateBounds" />
          </mxGeometry>
        </mxCell>
        <mxCell id="7ib71Nidem4NqmsdStW_-181" style="shape=partialRectangle;html=1;whiteSpace=wrap;connectable=0;fillColor=none;top=0;left=0;bottom=0;right=0;overflow=hidden;pointerEvents=1;" parent="7ib71Nidem4NqmsdStW_-175" vertex="1">
          <mxGeometry x="600" width="140" height="42" as="geometry">
            <mxRectangle width="140" height="42" as="alternateBounds" />
          </mxGeometry>
        </mxCell>
        <mxCell id="7ib71Nidem4NqmsdStW_-182" style="shape=partialRectangle;html=1;whiteSpace=wrap;connectable=0;fillColor=none;top=0;left=0;bottom=0;right=0;overflow=hidden;pointerEvents=1;" parent="7ib71Nidem4NqmsdStW_-175" vertex="1">
          <mxGeometry x="740" width="140" height="42" as="geometry">
            <mxRectangle width="140" height="42" as="alternateBounds" />
          </mxGeometry>
        </mxCell>
        <mxCell id="7ib71Nidem4NqmsdStW_-183" style="shape=partialRectangle;html=1;whiteSpace=wrap;connectable=0;fillColor=none;top=0;left=0;bottom=0;right=0;overflow=hidden;pointerEvents=1;" parent="7ib71Nidem4NqmsdStW_-175" vertex="1">
          <mxGeometry x="880" width="130" height="42" as="geometry">
            <mxRectangle width="130" height="42" as="alternateBounds" />
          </mxGeometry>
        </mxCell>
        <mxCell id="7ib71Nidem4NqmsdStW_-184" style="shape=partialRectangle;html=1;whiteSpace=wrap;collapsible=0;dropTarget=0;pointerEvents=0;fillColor=none;top=0;left=0;bottom=0;right=0;points=[[0,0.5],[1,0.5]];portConstraint=eastwest;" parent="7ib71Nidem4NqmsdStW_-111" vertex="1">
          <mxGeometry y="336" width="1010" height="42" as="geometry" />
        </mxCell>
        <mxCell id="7ib71Nidem4NqmsdStW_-185" style="shape=partialRectangle;html=1;whiteSpace=wrap;connectable=0;fillColor=none;top=0;left=0;bottom=0;right=0;overflow=hidden;pointerEvents=1;" parent="7ib71Nidem4NqmsdStW_-184" vertex="1">
          <mxGeometry width="36" height="42" as="geometry">
            <mxRectangle width="36" height="42" as="alternateBounds" />
          </mxGeometry>
        </mxCell>
        <mxCell id="7ib71Nidem4NqmsdStW_-186" style="shape=partialRectangle;html=1;whiteSpace=wrap;connectable=0;fillColor=none;top=0;left=0;bottom=0;right=0;overflow=hidden;pointerEvents=1;" parent="7ib71Nidem4NqmsdStW_-184" vertex="1">
          <mxGeometry x="36" width="164" height="42" as="geometry">
            <mxRectangle width="164" height="42" as="alternateBounds" />
          </mxGeometry>
        </mxCell>
        <mxCell id="7ib71Nidem4NqmsdStW_-187" style="shape=partialRectangle;html=1;whiteSpace=wrap;connectable=0;fillColor=none;top=0;left=0;bottom=0;right=0;overflow=hidden;pointerEvents=1;" parent="7ib71Nidem4NqmsdStW_-184" vertex="1">
          <mxGeometry x="200" width="104" height="42" as="geometry">
            <mxRectangle width="104" height="42" as="alternateBounds" />
          </mxGeometry>
        </mxCell>
        <mxCell id="7ib71Nidem4NqmsdStW_-188" style="shape=partialRectangle;html=1;whiteSpace=wrap;connectable=0;fillColor=none;top=0;left=0;bottom=0;right=0;overflow=hidden;pointerEvents=1;" parent="7ib71Nidem4NqmsdStW_-184" vertex="1">
          <mxGeometry x="304" width="156" height="42" as="geometry">
            <mxRectangle width="156" height="42" as="alternateBounds" />
          </mxGeometry>
        </mxCell>
        <mxCell id="7ib71Nidem4NqmsdStW_-189" style="shape=partialRectangle;html=1;whiteSpace=wrap;connectable=0;fillColor=none;top=0;left=0;bottom=0;right=0;overflow=hidden;pointerEvents=1;" parent="7ib71Nidem4NqmsdStW_-184" vertex="1">
          <mxGeometry x="460" width="140" height="42" as="geometry">
            <mxRectangle width="140" height="42" as="alternateBounds" />
          </mxGeometry>
        </mxCell>
        <mxCell id="7ib71Nidem4NqmsdStW_-190" style="shape=partialRectangle;html=1;whiteSpace=wrap;connectable=0;fillColor=none;top=0;left=0;bottom=0;right=0;overflow=hidden;pointerEvents=1;" parent="7ib71Nidem4NqmsdStW_-184" vertex="1">
          <mxGeometry x="600" width="140" height="42" as="geometry">
            <mxRectangle width="140" height="42" as="alternateBounds" />
          </mxGeometry>
        </mxCell>
        <mxCell id="7ib71Nidem4NqmsdStW_-191" style="shape=partialRectangle;html=1;whiteSpace=wrap;connectable=0;fillColor=none;top=0;left=0;bottom=0;right=0;overflow=hidden;pointerEvents=1;" parent="7ib71Nidem4NqmsdStW_-184" vertex="1">
          <mxGeometry x="740" width="140" height="42" as="geometry">
            <mxRectangle width="140" height="42" as="alternateBounds" />
          </mxGeometry>
        </mxCell>
        <mxCell id="7ib71Nidem4NqmsdStW_-192" style="shape=partialRectangle;html=1;whiteSpace=wrap;connectable=0;fillColor=none;top=0;left=0;bottom=0;right=0;overflow=hidden;pointerEvents=1;" parent="7ib71Nidem4NqmsdStW_-184" vertex="1">
          <mxGeometry x="880" width="130" height="42" as="geometry">
            <mxRectangle width="130" height="42" as="alternateBounds" />
          </mxGeometry>
        </mxCell>
        <mxCell id="7ib71Nidem4NqmsdStW_-193" value="PASSED" style="rounded=0;whiteSpace=wrap;html=1;align=center;fillColor=#d5e8d4;strokeColor=#009900;" parent="7ib71Nidem4NqmsdStW_-101" vertex="1">
          <mxGeometry x="61" y="700" width="109" height="30" as="geometry" />
        </mxCell>
        <mxCell id="7ib71Nidem4NqmsdStW_-194" value="FAILED" style="rounded=0;whiteSpace=wrap;html=1;align=center;fillColor=#f8cecc;strokeColor=#b85450;" parent="7ib71Nidem4NqmsdStW_-101" vertex="1">
          <mxGeometry x="192.5" y="700" width="109" height="30" as="geometry" />
        </mxCell>
        <mxCell id="7ib71Nidem4NqmsdStW_-195" value="&lt;font style=&quot;font-size: 12px ; font-weight: normal&quot;&gt;SELECT ALL&lt;/font&gt;" style="text;html=1;strokeColor=none;fillColor=none;align=center;verticalAlign=middle;whiteSpace=wrap;rounded=0;fontSize=18;fontStyle=1" parent="7ib71Nidem4NqmsdStW_-101" vertex="1">
          <mxGeometry x="85.5" y="255" width="74.5" height="30" as="geometry" />
        </mxCell>
        <mxCell id="7ib71Nidem4NqmsdStW_-196" value="" style="strokeWidth=1;shadow=0;dashed=0;align=center;html=1;shape=mxgraph.mockup.forms.rrect;rSize=0;fillColor=#eeeeee;strokeColor=#999999;gradientColor=#cccccc;align=left;spacingLeft=4;fontSize=17;fontColor=#666666;labelPosition=right;" parent="7ib71Nidem4NqmsdStW_-101" vertex="1">
          <mxGeometry x="61" y="355.5" width="15" height="15" as="geometry" />
        </mxCell>
        <mxCell id="7ib71Nidem4NqmsdStW_-197" value="" style="strokeWidth=1;shadow=0;dashed=0;align=center;html=1;shape=mxgraph.mockup.forms.rrect;rSize=0;fillColor=#eeeeee;strokeColor=#999999;gradientColor=#cccccc;align=left;spacingLeft=4;fontSize=17;fontColor=#666666;labelPosition=right;" parent="7ib71Nidem4NqmsdStW_-101" vertex="1">
          <mxGeometry x="61" y="400" width="15" height="15" as="geometry" />
        </mxCell>
        <mxCell id="7ib71Nidem4NqmsdStW_-198" value="" style="strokeWidth=1;shadow=0;dashed=0;align=center;html=1;shape=mxgraph.mockup.forms.rrect;rSize=0;fillColor=#eeeeee;strokeColor=#999999;gradientColor=#cccccc;align=left;spacingLeft=4;fontSize=17;fontColor=#666666;labelPosition=right;" parent="7ib71Nidem4NqmsdStW_-101" vertex="1">
          <mxGeometry x="60" y="440" width="15" height="15" as="geometry" />
        </mxCell>
        <mxCell id="7ib71Nidem4NqmsdStW_-199" value="" style="strokeWidth=1;shadow=0;dashed=0;align=center;html=1;shape=mxgraph.mockup.forms.rrect;rSize=0;fillColor=#eeeeee;strokeColor=#999999;gradientColor=#cccccc;align=left;spacingLeft=4;fontSize=17;fontColor=#666666;labelPosition=right;" parent="7ib71Nidem4NqmsdStW_-101" vertex="1">
          <mxGeometry x="61" y="481.5" width="15" height="15" as="geometry" />
        </mxCell>
        <mxCell id="7ib71Nidem4NqmsdStW_-202" value="" style="strokeWidth=1;shadow=0;dashed=0;align=center;html=1;shape=mxgraph.mockup.forms.rrect;rSize=0;fillColor=#eeeeee;strokeColor=#999999;gradientColor=#cccccc;align=left;spacingLeft=4;fontSize=17;fontColor=#666666;labelPosition=right;" parent="7ib71Nidem4NqmsdStW_-101" vertex="1">
          <mxGeometry x="60" y="262.5" width="15" height="15" as="geometry" />
        </mxCell>
        <mxCell id="7ib71Nidem4NqmsdStW_-203" value="BET-COET" style="strokeWidth=1;shadow=0;dashed=0;align=center;html=1;shape=mxgraph.mockup.forms.comboBox;align=left;fillColor2=#aaddff;mainText=;fontSize=17;spacingLeft=3;" parent="7ib71Nidem4NqmsdStW_-101" vertex="1">
          <mxGeometry x="909" y="255" width="150" height="30" as="geometry" />
        </mxCell>
        <mxCell id="7b9WUNllSRaX3bxvS0nX-2" value="Search" style="strokeWidth=1;shadow=0;dashed=0;align=center;html=1;shape=mxgraph.mockup.forms.searchBox;strokeColor=#999999;mainText=;strokeColor2=#008cff;fontColor=#666666;fontSize=17;align=left;spacingLeft=3;" vertex="1" parent="7ib71Nidem4NqmsdStW_-101">
          <mxGeometry x="180" y="255" width="150" height="30" as="geometry" />
        </mxCell>
      </root>
    </mxGraphModel>
  </diagram>
</mxfile>
